<?xml version="1.0" encoding="UTF-8" standalone="no"?><svg xmlns="http://www.w3.org/2000/svg" xmlns:xlink="http://www.w3.org/1999/xlink" contentStyleType="text/css" height="428px" preserveAspectRatio="none" style="width:248px;height:428px;background:#FFFFFF;" version="1.1" viewBox="0 0 248 428" width="248px" zoomAndPan="magnify"><defs/><g><!--MD5=[26cc0ec56d80976c372104682539b60a]
entity edge_device--><g id="elem_edge_device"><rect fill="#F1F1F1" height="46.2969" rx="2.5" ry="2.5" style="stroke:#181818;stroke-width:0.5;" width="127" x="38.5" y="7"/><rect fill="#F1F1F1" height="10" style="stroke:#181818;stroke-width:0.5;" width="15" x="145.5" y="12"/><rect fill="#F1F1F1" height="2" style="stroke:#181818;stroke-width:0.5;" width="4" x="143.5" y="14"/><rect fill="#F1F1F1" height="2" style="stroke:#181818;stroke-width:0.5;" width="4" x="143.5" y="18"/><text fill="#000000" font-family="sans-serif" font-size="14" lengthAdjust="spacing" textLength="87" x="53.5" y="39.9951">Edge Device</text></g><!--MD5=[76bf49561e93eb564f10b9592d15a68b]
entity ai_ml--><g id="elem_ai_ml"><rect fill="#F1F1F1" height="46.2969" rx="2.5" ry="2.5" style="stroke:#181818;stroke-width:0.5;" width="122" x="41" y="130"/><rect fill="#F1F1F1" height="10" style="stroke:#181818;stroke-width:0.5;" width="15" x="143" y="135"/><rect fill="#F1F1F1" height="2" style="stroke:#181818;stroke-width:0.5;" width="4" x="141" y="137"/><rect fill="#F1F1F1" height="2" style="stroke:#181818;stroke-width:0.5;" width="4" x="141" y="141"/><text fill="#000000" font-family="sans-serif" font-size="14" lengthAdjust="spacing" textLength="82" x="56" y="162.9951">AI/ML Model</text></g><!--MD5=[bb652fc1ce3da2060c9c3c7211dc4a65]
entity reporting--><g id="elem_reporting"><rect fill="#F1F1F1" height="46.2969" rx="2.5" ry="2.5" style="stroke:#181818;stroke-width:0.5;" width="190" x="7" y="253"/><rect fill="#F1F1F1" height="10" style="stroke:#181818;stroke-width:0.5;" width="15" x="177" y="258"/><rect fill="#F1F1F1" height="2" style="stroke:#181818;stroke-width:0.5;" width="4" x="175" y="260"/><rect fill="#F1F1F1" height="2" style="stroke:#181818;stroke-width:0.5;" width="4" x="175" y="264"/><text fill="#000000" font-family="sans-serif" font-size="14" lengthAdjust="spacing" textLength="150" x="22" y="285.9951">Centralized Reporting</text></g><!--MD5=[2115cf85aca37cfcd56e1fa9133bba5e]
entity root_cause--><g id="elem_root_cause"><rect fill="#F1F1F1" height="46.2969" rx="2.5" ry="2.5" style="stroke:#181818;stroke-width:0.5;" width="180" x="12" y="376"/><rect fill="#F1F1F1" height="10" style="stroke:#181818;stroke-width:0.5;" width="15" x="172" y="381"/><rect fill="#F1F1F1" height="2" style="stroke:#181818;stroke-width:0.5;" width="4" x="170" y="383"/><rect fill="#F1F1F1" height="2" style="stroke:#181818;stroke-width:0.5;" width="4" x="170" y="387"/><text fill="#000000" font-family="sans-serif" font-size="14" lengthAdjust="spacing" textLength="140" x="27" y="408.9951">Root Cause Analysis</text></g><!--MD5=[efefdd88cc9ac59b6ac0268edabc361b]
link edge_device to ai_ml--><g id="link_edge_device_ai_ml"><path d="M102,53.19 C102,73.41 102,103.31 102,124.92 " fill="none" id="edge_device-to-ai_ml" style="stroke:#181818;stroke-width:1.0;"/><polygon fill="#181818" points="102,129.95,106,120.95,102,124.95,98,120.95,102,129.95" style="stroke:#181818;stroke-width:1.0;"/><text fill="#000000" font-family="sans-serif" font-size="13" lengthAdjust="spacing" textLength="137" x="103" y="96.0669">Localized Diagnostics</text></g><!--MD5=[cc30b9c5b0ed88d04fdb8cff00dbb557]
link ai_ml to reporting--><g id="link_ai_ml_reporting"><path d="M102,176.19 C102,196.41 102,226.31 102,247.92 " fill="none" id="ai_ml-to-reporting" style="stroke:#181818;stroke-width:1.0;"/><polygon fill="#181818" points="102,252.95,106,243.95,102,247.95,98,243.95,102,252.95" style="stroke:#181818;stroke-width:1.0;"/><text fill="#000000" font-family="sans-serif" font-size="13" lengthAdjust="spacing" textLength="90" x="103" y="219.0669">Sends Results</text></g><!--MD5=[3a40588a09366b30c75f3bbf7419e913]
link reporting to root_cause--><g id="link_reporting_root_cause"><path d="M102,299.19 C102,319.41 102,349.31 102,370.92 " fill="none" id="reporting-to-root_cause" style="stroke:#181818;stroke-width:1.0;"/><polygon fill="#181818" points="102,375.95,106,366.95,102,370.95,98,366.95,102,375.95" style="stroke:#181818;stroke-width:1.0;"/><text fill="#000000" font-family="sans-serif" font-size="13" lengthAdjust="spacing" textLength="107" x="103" y="342.0669">Provides Insights</text></g><!--MD5=[c068a3f5c255b20c94dc1e2b0dacddb6]
@startuml
component "Edge Device" as edge_device
    component "AI/ML Model" as ai_ml
    component "Centralized Reporting" as reporting
    component "Root Cause Analysis" as root_cause

    edge_device -down-> ai_ml : Localized Diagnostics
    ai_ml -down-> reporting : Sends Results
    reporting -down-> root_cause : Provides Insights
@enduml

PlantUML version 1.2022.7(Mon Aug 22 17:01:30 UTC 2022)
(GPL source distribution)
Java Runtime: OpenJDK Runtime Environment
JVM: OpenJDK 64-Bit Server VM
Default Encoding: UTF-8
Language: en
Country: null
--></g></svg>