<?xml version="1.0" encoding="UTF-8" standalone="no"?><svg xmlns="http://www.w3.org/2000/svg" xmlns:xlink="http://www.w3.org/1999/xlink" contentStyleType="text/css" height="182px" preserveAspectRatio="none" style="width:741px;height:182px;background:#FFFFFF;" version="1.1" viewBox="0 0 741 182" width="741px" zoomAndPan="magnify"><defs/><g><!--MD5=[38bce2e941425f44e90fcc44c88d9918]
entity business_logic--><g id="elem_business_logic"><rect fill="#F1F1F1" height="46.2969" rx="2.5" ry="2.5" style="stroke:#181818;stroke-width:0.5;" width="144" x="269" y="7"/><rect fill="#F1F1F1" height="10" style="stroke:#181818;stroke-width:0.5;" width="15" x="393" y="12"/><rect fill="#F1F1F1" height="2" style="stroke:#181818;stroke-width:0.5;" width="4" x="391" y="14"/><rect fill="#F1F1F1" height="2" style="stroke:#181818;stroke-width:0.5;" width="4" x="391" y="18"/><text fill="#000000" font-family="sans-serif" font-size="14" lengthAdjust="spacing" textLength="104" x="284" y="39.9951">Business Logic</text></g><!--MD5=[6574a7fd953c989fb05a0ed19b793cc2]
entity error_logs--><g id="elem_error_logs"><rect fill="#F1F1F1" height="46.2969" rx="2.5" ry="2.5" style="stroke:#181818;stroke-width:0.5;" width="110" x="7" y="130"/><rect fill="#F1F1F1" height="10" style="stroke:#181818;stroke-width:0.5;" width="15" x="97" y="135"/><rect fill="#F1F1F1" height="2" style="stroke:#181818;stroke-width:0.5;" width="4" x="95" y="137"/><rect fill="#F1F1F1" height="2" style="stroke:#181818;stroke-width:0.5;" width="4" x="95" y="141"/><text fill="#000000" font-family="sans-serif" font-size="14" lengthAdjust="spacing" textLength="70" x="22" y="162.9951">Error Logs</text></g><!--MD5=[0171924d90e4b8889794b7c9bca7f9d1]
entity sensor1--><g id="elem_sensor1"><rect fill="#F1F1F1" height="46.2969" rx="2.5" ry="2.5" style="stroke:#181818;stroke-width:0.5;" width="171" x="152.5" y="130"/><rect fill="#F1F1F1" height="10" style="stroke:#181818;stroke-width:0.5;" width="15" x="303.5" y="135"/><rect fill="#F1F1F1" height="2" style="stroke:#181818;stroke-width:0.5;" width="4" x="301.5" y="137"/><rect fill="#F1F1F1" height="2" style="stroke:#181818;stroke-width:0.5;" width="4" x="301.5" y="141"/><text fill="#000000" font-family="sans-serif" font-size="14" lengthAdjust="spacing" textLength="131" x="167.5" y="162.9951">Hydration Sensor 1</text></g><!--MD5=[407bca6816da8e17275c06ae35550d37]
entity sensor2--><g id="elem_sensor2"><rect fill="#F1F1F1" height="46.2969" rx="2.5" ry="2.5" style="stroke:#181818;stroke-width:0.5;" width="171" x="358.5" y="130"/><rect fill="#F1F1F1" height="10" style="stroke:#181818;stroke-width:0.5;" width="15" x="509.5" y="135"/><rect fill="#F1F1F1" height="2" style="stroke:#181818;stroke-width:0.5;" width="4" x="507.5" y="137"/><rect fill="#F1F1F1" height="2" style="stroke:#181818;stroke-width:0.5;" width="4" x="507.5" y="141"/><text fill="#000000" font-family="sans-serif" font-size="14" lengthAdjust="spacing" textLength="131" x="373.5" y="162.9951">Hydration Sensor 2</text></g><!--MD5=[94d24907baad5e8881b39bb56e2b13bc]
entity sensor3--><g id="elem_sensor3"><rect fill="#F1F1F1" height="46.2969" rx="2.5" ry="2.5" style="stroke:#181818;stroke-width:0.5;" width="171" x="564.5" y="130"/><rect fill="#F1F1F1" height="10" style="stroke:#181818;stroke-width:0.5;" width="15" x="715.5" y="135"/><rect fill="#F1F1F1" height="2" style="stroke:#181818;stroke-width:0.5;" width="4" x="713.5" y="137"/><rect fill="#F1F1F1" height="2" style="stroke:#181818;stroke-width:0.5;" width="4" x="713.5" y="141"/><text fill="#000000" font-family="sans-serif" font-size="14" lengthAdjust="spacing" textLength="131" x="579.5" y="162.9951">Hydration Sensor 3</text></g><!--MD5=[6404422b6db6d2d6a63208da97667392]
link business_logic to sensor1--><g id="link_business_logic_sensor1"><path d="M322.11,53.19 C304.61,73.75 278.59,104.32 260.13,126.01 " fill="none" id="business_logic-to-sensor1" style="stroke:#181818;stroke-width:1.0;"/><polygon fill="#181818" points="256.77,129.95,265.6377,125.6648,260.0004,126.1336,259.5315,120.4962,256.77,129.95" style="stroke:#181818;stroke-width:1.0;"/><text fill="#000000" font-family="sans-serif" font-size="13" lengthAdjust="spacing" textLength="87" x="297" y="96.0669">Handles Data</text></g><!--MD5=[c3ee6751403cc841c6778a0bb63e2004]
link business_logic to sensor2--><g id="link_business_logic_sensor2"><path d="M364.54,53.08 C373.74,62.07 384.17,72.75 393,83 C404.62,96.49 416.5,112.42 425.87,125.57 " fill="none" id="business_logic-to-sensor2" style="stroke:#181818;stroke-width:1.0;"/><polygon fill="#181818" points="428.95,129.92,427.0251,120.2611,426.0655,125.836,420.4906,124.8763,428.95,129.92" style="stroke:#181818;stroke-width:1.0;"/><text fill="#000000" font-family="sans-serif" font-size="13" lengthAdjust="spacing" textLength="87" x="408" y="96.0669">Handles Data</text></g><!--MD5=[cd9b5deb59d2c0542bd3e3a6bc4cdb0d]
link business_logic to sensor3--><g id="link_business_logic_sensor3"><path d="M413.13,51.75 C441.72,60.56 474.7,71.46 504,83 C537.54,96.21 574.21,113.55 602.41,127.55 " fill="none" id="business_logic-to-sensor3" style="stroke:#181818;stroke-width:1.0;"/><polygon fill="#181818" points="607.22,129.94,600.9396,122.3534,602.7422,127.7153,597.3802,129.5179,607.22,129.94" style="stroke:#181818;stroke-width:1.0;"/><text fill="#000000" font-family="sans-serif" font-size="13" lengthAdjust="spacing" textLength="87" x="541" y="96.0669">Handles Data</text></g><!--MD5=[c6465e0c9c7a28fdd585135ed6c9756e]
link business_logic to error_logs--><g id="link_business_logic_error_logs"><path d="M277.85,53.11 C253.88,61.9 226.48,72.42 202,83 C170.37,96.67 135.63,113.78 108.66,127.54 " fill="none" id="business_logic-to-error_logs" style="stroke:#181818;stroke-width:1.0;"/><polygon fill="#181818" points="104.06,129.9,113.895,129.3774,108.5149,127.6297,110.2626,122.2496,104.06,129.9" style="stroke:#181818;stroke-width:1.0;"/><text fill="#000000" font-family="sans-serif" font-size="13" lengthAdjust="spacing" textLength="72" x="203" y="96.0669">Logs Errors</text></g><!--MD5=[8c747031c2e3de1fd5f7239bfb3952ef]
@startuml
component "Business Logic" as business_logic
    component "Error Logs" as error_logs

    component "Hydration Sensor 1" as sensor1
    component "Hydration Sensor 2" as sensor2
    component "Hydration Sensor 3" as sensor3

    business_logic -down-> sensor1 : Handles Data
    business_logic -down-> sensor2 : Handles Data
    business_logic -down-> sensor3 : Handles Data

    business_logic -down-> error_logs : Logs Errors
@enduml

PlantUML version 1.2022.7(Mon Aug 22 17:01:30 UTC 2022)
(GPL source distribution)
Java Runtime: OpenJDK Runtime Environment
JVM: OpenJDK 64-Bit Server VM
Default Encoding: UTF-8
Language: en
Country: null
--></g></svg>