<?xml version="1.0" encoding="UTF-8" standalone="no"?><svg xmlns="http://www.w3.org/2000/svg" xmlns:xlink="http://www.w3.org/1999/xlink" contentStyleType="text/css" height="1437px" preserveAspectRatio="none" style="width:1061px;height:1437px;background:#FFFFFF;" version="1.1" viewBox="0 0 1061 1437" width="1061px" zoomAndPan="magnify"><defs/><g><rect fill="none" height="26.2969" id="_title" style="stroke:none;stroke-width:1.0;" width="364" x="341.5" y="5"/><text fill="#000000" font-family="sans-serif" font-size="14" font-weight="bold" lengthAdjust="spacing" textLength="354" x="346.5" y="22.9951">OS Ecosystem Overview - Mon, Apr 14, 2025</text><!--MD5=[639d9ffac0c549fa1a507455a7b802fd]
cluster Software Ecosystem: Linux | Windows | Android | iOS--><g id="cluster_Software Ecosystem: Linux | Windows | Android | iOS"><path d="M8.5,43.2969 L429.5,43.2969 A3.75,3.75 0 0 1 432,45.7969 L439,65.5938 L1051.5,65.5938 A2.5,2.5 0 0 1 1054,68.0938 L1054,1427.7969 A2.5,2.5 0 0 1 1051.5,1430.2969 L8.5,1430.2969 A2.5,2.5 0 0 1 6,1427.7969 L6,45.7969 A2.5,2.5 0 0 1 8.5,43.2969 " fill="none" style="stroke:#000000;stroke-width:1.5;"/><line style="stroke:#000000;stroke-width:1.5;" x1="6" x2="439" y1="65.5938" y2="65.5938"/><text fill="#000000" font-family="sans-serif" font-size="14" font-weight="bold" lengthAdjust="spacing" textLength="420" x="10" y="58.292">Software Ecosystem: Linux | Windows | Android | iOS</text></g><!--MD5=[065a044ac04f49658d2bef5d24acdf09]
cluster LINUX--><g id="cluster_LINUX"><path d="M40.5,94.2969 L110.5,94.2969 A3.75,3.75 0 0 1 113,96.7969 L120,116.5938 L997.5,116.5938 A2.5,2.5 0 0 1 1000,119.0938 L1000,387.7969 A2.5,2.5 0 0 1 997.5,390.2969 L40.5,390.2969 A2.5,2.5 0 0 1 38,387.7969 L38,96.7969 A2.5,2.5 0 0 1 40.5,94.2969 " fill="none" style="stroke:#000000;stroke-width:1.5;"/><line style="stroke:#000000;stroke-width:1.5;" x1="38" x2="120" y1="116.5938" y2="116.5938"/><text fill="#000000" font-family="sans-serif" font-size="14" font-weight="bold" lengthAdjust="spacing" textLength="69" x="42" y="109.292">Linux OS</text></g><!--MD5=[755cb0298a8bf810ff30329e06e405af]
cluster LAMP stack--><g id="cluster_LAMP stack"><path d="M80.5,145.2969 L171.5,145.2969 A3.75,3.75 0 0 1 174,147.7969 L181,167.5938 L965.5,167.5938 A2.5,2.5 0 0 1 968,170.0938 L968,355.7969 A2.5,2.5 0 0 1 965.5,358.2969 L80.5,358.2969 A2.5,2.5 0 0 1 78,355.7969 L78,147.7969 A2.5,2.5 0 0 1 80.5,145.2969 " fill="none" style="stroke:#000000;stroke-width:1.5;"/><line style="stroke:#000000;stroke-width:1.5;" x1="78" x2="181" y1="167.5938" y2="167.5938"/><text fill="#000000" font-family="sans-serif" font-size="14" font-weight="bold" lengthAdjust="spacing" textLength="90" x="82" y="160.292">LAMP stack</text></g><!--MD5=[f4c52282f43dfaa620b472dc07296591]
cluster Linux--><g id="cluster_Linux"><path d="M722.5,188.2969 L765.5,188.2969 A3.75,3.75 0 0 1 768,190.7969 L775,210.5938 L941.5,210.5938 A2.5,2.5 0 0 1 944,213.0938 L944,331.7969 A2.5,2.5 0 0 1 941.5,334.2969 L722.5,334.2969 A2.5,2.5 0 0 1 720,331.7969 L720,190.7969 A2.5,2.5 0 0 1 722.5,188.2969 " fill="none" style="stroke:#000000;stroke-width:1.5;"/><line style="stroke:#000000;stroke-width:1.5;" x1="720" x2="775" y1="210.5938" y2="210.5938"/><text fill="#000000" font-family="sans-serif" font-size="14" font-weight="bold" lengthAdjust="spacing" textLength="42" x="724" y="203.292">Linux</text></g><!--MD5=[8f463db2213924b28ab9fa8a8a25c26a]
cluster apache--><g id="cluster_apache"><path d="M508.5,188.2969 L566.5,188.2969 A3.75,3.75 0 0 1 569,190.7969 L576,210.5938 L693.5,210.5938 A2.5,2.5 0 0 1 696,213.0938 L696,331.7969 A2.5,2.5 0 0 1 693.5,334.2969 L508.5,334.2969 A2.5,2.5 0 0 1 506,331.7969 L506,190.7969 A2.5,2.5 0 0 1 508.5,188.2969 " fill="none" style="stroke:#000000;stroke-width:1.5;"/><line style="stroke:#000000;stroke-width:1.5;" x1="506" x2="576" y1="210.5938" y2="210.5938"/><text fill="#000000" font-family="sans-serif" font-size="14" font-weight="bold" lengthAdjust="spacing" textLength="57" x="510" y="203.292">apache</text></g><!--MD5=[40f389b860e50d90baaf5de832b1264d]
cluster mysql--><g id="cluster_mysql"><path d="M306.5,188.2969 L353.5,188.2969 A3.75,3.75 0 0 1 356,190.7969 L363,210.5938 L479.5,210.5938 A2.5,2.5 0 0 1 482,213.0938 L482,331.7969 A2.5,2.5 0 0 1 479.5,334.2969 L306.5,334.2969 A2.5,2.5 0 0 1 304,331.7969 L304,190.7969 A2.5,2.5 0 0 1 306.5,188.2969 " fill="none" style="stroke:#000000;stroke-width:1.5;"/><line style="stroke:#000000;stroke-width:1.5;" x1="304" x2="363" y1="210.5938" y2="210.5938"/><text fill="#000000" font-family="sans-serif" font-size="14" font-weight="bold" lengthAdjust="spacing" textLength="46" x="308" y="203.292">mysql</text></g><!--MD5=[c4f91dbcd4f3e6a5ee0b9117e9210cd6]
cluster php--><g id="cluster_php"><path d="M104.5,188.2969 L135.5,188.2969 A3.75,3.75 0 0 1 138,190.7969 L145,210.5938 L277.5,210.5938 A2.5,2.5 0 0 1 280,213.0938 L280,331.7969 A2.5,2.5 0 0 1 277.5,334.2969 L104.5,334.2969 A2.5,2.5 0 0 1 102,331.7969 L102,190.7969 A2.5,2.5 0 0 1 104.5,188.2969 " fill="none" style="stroke:#000000;stroke-width:1.5;"/><line style="stroke:#000000;stroke-width:1.5;" x1="102" x2="145" y1="210.5938" y2="210.5938"/><text fill="#000000" font-family="sans-serif" font-size="14" font-weight="bold" lengthAdjust="spacing" textLength="30" x="106" y="203.292">php</text></g><!--MD5=[80a1a4868f862ff5fbacff229582ab52]
cluster ANDROID--><g id="cluster_ANDROID"><path d="M40.5,430.2969 L130.5,430.2969 A3.75,3.75 0 0 1 133,432.7969 L140,452.5938 L975.5,452.5938 A2.5,2.5 0 0 1 978,455.0938 L978,723.7969 A2.5,2.5 0 0 1 975.5,726.2969 L40.5,726.2969 A2.5,2.5 0 0 1 38,723.7969 L38,432.7969 A2.5,2.5 0 0 1 40.5,430.2969 " fill="none" style="stroke:#000000;stroke-width:1.5;"/><line style="stroke:#000000;stroke-width:1.5;" x1="38" x2="140" y1="452.5938" y2="452.5938"/><text fill="#000000" font-family="sans-serif" font-size="14" font-weight="bold" lengthAdjust="spacing" textLength="89" x="42" y="445.292">Android OS</text></g><!--MD5=[63c5e367db85d6533567ffe0c790afb3]
cluster Mobile Stack--><g id="cluster_Mobile Stack"><path d="M80.5,481.2969 L180.5,481.2969 A3.75,3.75 0 0 1 183,483.7969 L190,503.5938 L943.5,503.5938 A2.5,2.5 0 0 1 946,506.0938 L946,691.7969 A2.5,2.5 0 0 1 943.5,694.2969 L80.5,694.2969 A2.5,2.5 0 0 1 78,691.7969 L78,483.7969 A2.5,2.5 0 0 1 80.5,481.2969 " fill="none" style="stroke:#000000;stroke-width:1.5;"/><line style="stroke:#000000;stroke-width:1.5;" x1="78" x2="190" y1="503.5938" y2="503.5938"/><text fill="#000000" font-family="sans-serif" font-size="14" font-weight="bold" lengthAdjust="spacing" textLength="99" x="82" y="496.292">Mobile Stack</text></g><!--MD5=[fe87e616a30605d1538b159368e48c05]
cluster Library 1--><g id="cluster_Library 1"><path d="M746.5,524.2969 L817.5,524.2969 A3.75,3.75 0 0 1 820,526.7969 L827,546.5938 L919.5,546.5938 A2.5,2.5 0 0 1 922,549.0938 L922,667.7969 A2.5,2.5 0 0 1 919.5,670.2969 L746.5,670.2969 A2.5,2.5 0 0 1 744,667.7969 L744,526.7969 A2.5,2.5 0 0 1 746.5,524.2969 " fill="none" style="stroke:#000000;stroke-width:1.5;"/><line style="stroke:#000000;stroke-width:1.5;" x1="744" x2="827" y1="546.5938" y2="546.5938"/><text fill="#000000" font-family="sans-serif" font-size="14" font-weight="bold" lengthAdjust="spacing" textLength="70" x="748" y="539.292">Library 1</text></g><!--MD5=[c238001725e2845801cedcb2a8ac3a4a]
cluster Library 2--><g id="cluster_Library 2"><path d="M532.5,524.2969 L603.5,524.2969 A3.75,3.75 0 0 1 606,526.7969 L613,546.5938 L717.5,546.5938 A2.5,2.5 0 0 1 720,549.0938 L720,667.7969 A2.5,2.5 0 0 1 717.5,670.2969 L532.5,670.2969 A2.5,2.5 0 0 1 530,667.7969 L530,526.7969 A2.5,2.5 0 0 1 532.5,524.2969 " fill="none" style="stroke:#000000;stroke-width:1.5;"/><line style="stroke:#000000;stroke-width:1.5;" x1="530" x2="613" y1="546.5938" y2="546.5938"/><text fill="#000000" font-family="sans-serif" font-size="14" font-weight="bold" lengthAdjust="spacing" textLength="70" x="534" y="539.292">Library 2</text></g><!--MD5=[f6dca2d41a3b6aa93a2f53da6142b591]
cluster SQLite--><g id="cluster_SQLite"><path d="M318.5,524.2969 L370.5,524.2969 A3.75,3.75 0 0 1 373,526.7969 L380,546.5938 L503.5,546.5938 A2.5,2.5 0 0 1 506,549.0938 L506,667.7969 A2.5,2.5 0 0 1 503.5,670.2969 L318.5,670.2969 A2.5,2.5 0 0 1 316,667.7969 L316,526.7969 A2.5,2.5 0 0 1 318.5,524.2969 " fill="none" style="stroke:#000000;stroke-width:1.5;"/><line style="stroke:#000000;stroke-width:1.5;" x1="316" x2="380" y1="546.5938" y2="546.5938"/><text fill="#000000" font-family="sans-serif" font-size="14" font-weight="bold" lengthAdjust="spacing" textLength="51" x="320" y="539.292">SQLite</text></g><!--MD5=[ac52e205cc3154fe11f6bb10bb0ca029]
cluster Lang--><g id="cluster_Lang"><path d="M104.5,524.2969 L143.5,524.2969 A3.75,3.75 0 0 1 146,526.7969 L153,546.5938 L289.5,546.5938 A2.5,2.5 0 0 1 292,549.0938 L292,667.7969 A2.5,2.5 0 0 1 289.5,670.2969 L104.5,670.2969 A2.5,2.5 0 0 1 102,667.7969 L102,526.7969 A2.5,2.5 0 0 1 104.5,524.2969 " fill="none" style="stroke:#000000;stroke-width:1.5;"/><line style="stroke:#000000;stroke-width:1.5;" x1="102" x2="153" y1="546.5938" y2="546.5938"/><text fill="#000000" font-family="sans-serif" font-size="14" font-weight="bold" lengthAdjust="spacing" textLength="38" x="106" y="539.292">Lang</text></g><!--MD5=[2f58f1fcbe1dec887b4d7d9f41563af4]
cluster IOS--><g id="cluster_IOS"><path d="M40.5,766.2969 L67.5,766.2969 A3.75,3.75 0 0 1 70,768.7969 L77,788.5938 L959.5,788.5938 A2.5,2.5 0 0 1 962,791.0938 L962,1059.7969 A2.5,2.5 0 0 1 959.5,1062.2969 L40.5,1062.2969 A2.5,2.5 0 0 1 38,1059.7969 L38,768.7969 A2.5,2.5 0 0 1 40.5,766.2969 " fill="none" style="stroke:#000000;stroke-width:1.5;"/><line style="stroke:#000000;stroke-width:1.5;" x1="38" x2="77" y1="788.5938" y2="788.5938"/><text fill="#000000" font-family="sans-serif" font-size="14" font-weight="bold" lengthAdjust="spacing" textLength="26" x="42" y="781.292">iOS</text></g><!--MD5=[fa814bd3d311dea6f1acef26ef52f721]
cluster App Stack--><g id="cluster_App Stack"><path d="M80.5,817.2969 L160.5,817.2969 A3.75,3.75 0 0 1 163,819.7969 L170,839.5938 L927.5,839.5938 A2.5,2.5 0 0 1 930,842.0938 L930,1027.7969 A2.5,2.5 0 0 1 927.5,1030.2969 L80.5,1030.2969 A2.5,2.5 0 0 1 78,1027.7969 L78,819.7969 A2.5,2.5 0 0 1 80.5,817.2969 " fill="none" style="stroke:#000000;stroke-width:1.5;"/><line style="stroke:#000000;stroke-width:1.5;" x1="78" x2="170" y1="839.5938" y2="839.5938"/><text fill="#000000" font-family="sans-serif" font-size="14" font-weight="bold" lengthAdjust="spacing" textLength="79" x="82" y="832.292">App Stack</text></g><!--MD5=[d811b360aa49ba14029aeed5cd763cda]
cluster Networking--><g id="cluster_Networking"><path d="M722.5,860.2969 L814.5,860.2969 A3.75,3.75 0 0 1 817,862.7969 L824,882.5938 L903.5,882.5938 A2.5,2.5 0 0 1 906,885.0938 L906,1003.7969 A2.5,2.5 0 0 1 903.5,1006.2969 L722.5,1006.2969 A2.5,2.5 0 0 1 720,1003.7969 L720,862.7969 A2.5,2.5 0 0 1 722.5,860.2969 " fill="none" style="stroke:#000000;stroke-width:1.5;"/><line style="stroke:#000000;stroke-width:1.5;" x1="720" x2="824" y1="882.5938" y2="882.5938"/><text fill="#000000" font-family="sans-serif" font-size="14" font-weight="bold" lengthAdjust="spacing" textLength="91" x="724" y="875.292">Networking</text></g><!--MD5=[562ed55e840afc79d9783beef242227d]
cluster Storage--><g id="cluster_Storage"><path d="M520.5,860.2969 L583.5,860.2969 A3.75,3.75 0 0 1 586,862.7969 L593,882.5938 L693.5,882.5938 A2.5,2.5 0 0 1 696,885.0938 L696,1003.7969 A2.5,2.5 0 0 1 693.5,1006.2969 L520.5,1006.2969 A2.5,2.5 0 0 1 518,1003.7969 L518,862.7969 A2.5,2.5 0 0 1 520.5,860.2969 " fill="none" style="stroke:#000000;stroke-width:1.5;"/><line style="stroke:#000000;stroke-width:1.5;" x1="518" x2="593" y1="882.5938" y2="882.5938"/><text fill="#000000" font-family="sans-serif" font-size="14" font-weight="bold" lengthAdjust="spacing" textLength="62" x="522" y="875.292">Storage</text></g><!--MD5=[9681dc6e01e10c6b4fe06895ae94f592]
cluster UI--><g id="cluster_UI"><path d="M318.5,860.2969 L334.5,860.2969 A3.75,3.75 0 0 1 337,862.7969 L344,882.5938 L491.5,882.5938 A2.5,2.5 0 0 1 494,885.0938 L494,1003.7969 A2.5,2.5 0 0 1 491.5,1006.2969 L318.5,1006.2969 A2.5,2.5 0 0 1 316,1003.7969 L316,862.7969 A2.5,2.5 0 0 1 318.5,860.2969 " fill="none" style="stroke:#000000;stroke-width:1.5;"/><line style="stroke:#000000;stroke-width:1.5;" x1="316" x2="344" y1="882.5938" y2="882.5938"/><text fill="#000000" font-family="sans-serif" font-size="14" font-weight="bold" lengthAdjust="spacing" textLength="15" x="320" y="875.292">UI</text></g><!--MD5=[2850bdf64dfe0686cd9a2c431d1c9021]
cluster Language--><g id="cluster_Language"><path d="M104.5,860.2969 L182.5,860.2969 A3.75,3.75 0 0 1 185,862.7969 L192,882.5938 L289.5,882.5938 A2.5,2.5 0 0 1 292,885.0938 L292,1003.7969 A2.5,2.5 0 0 1 289.5,1006.2969 L104.5,1006.2969 A2.5,2.5 0 0 1 102,1003.7969 L102,862.7969 A2.5,2.5 0 0 1 104.5,860.2969 " fill="none" style="stroke:#000000;stroke-width:1.5;"/><line style="stroke:#000000;stroke-width:1.5;" x1="102" x2="192" y1="882.5938" y2="882.5938"/><text fill="#000000" font-family="sans-serif" font-size="14" font-weight="bold" lengthAdjust="spacing" textLength="77" x="106" y="875.292">Language</text></g><!--MD5=[1737f61709d2594a368a17c37ccfbe44]
cluster WINDOWS--><g id="cluster_WINDOWS"><path d="M40.5,1102.2969 L140.5,1102.2969 A3.75,3.75 0 0 1 143,1104.7969 L150,1124.5938 L1019.5,1124.5938 A2.5,2.5 0 0 1 1022,1127.0938 L1022,1395.7969 A2.5,2.5 0 0 1 1019.5,1398.2969 L40.5,1398.2969 A2.5,2.5 0 0 1 38,1395.7969 L38,1104.7969 A2.5,2.5 0 0 1 40.5,1102.2969 " fill="none" style="stroke:#000000;stroke-width:1.5;"/><line style="stroke:#000000;stroke-width:1.5;" x1="38" x2="150" y1="1124.5938" y2="1124.5938"/><text fill="#000000" font-family="sans-serif" font-size="14" font-weight="bold" lengthAdjust="spacing" textLength="99" x="42" y="1117.292">Windows OS</text></g><!--MD5=[114ce53293f8ef383fc375fdfe290468]
cluster Server Stack--><g id="cluster_Server Stack"><path d="M80.5,1153.2969 L182.5,1153.2969 A3.75,3.75 0 0 1 185,1155.7969 L192,1175.5938 L987.5,1175.5938 A2.5,2.5 0 0 1 990,1178.0938 L990,1363.7969 A2.5,2.5 0 0 1 987.5,1366.2969 L80.5,1366.2969 A2.5,2.5 0 0 1 78,1363.7969 L78,1155.7969 A2.5,2.5 0 0 1 80.5,1153.2969 " fill="none" style="stroke:#000000;stroke-width:1.5;"/><line style="stroke:#000000;stroke-width:1.5;" x1="78" x2="192" y1="1175.5938" y2="1175.5938"/><text fill="#000000" font-family="sans-serif" font-size="14" font-weight="bold" lengthAdjust="spacing" textLength="101" x="82" y="1168.292">Server Stack</text></g><!--MD5=[a31f8263c76436e142375e2c24f5cc81]
cluster Web--><g id="cluster_Web"><path d="M782.5,1204.2969 L818.5,1204.2969 A3.75,3.75 0 0 1 821,1206.7969 L828,1226.5938 L963.5,1226.5938 A2.5,2.5 0 0 1 966,1229.0938 L966,1331.7969 A2.5,2.5 0 0 1 963.5,1334.2969 L782.5,1334.2969 A2.5,2.5 0 0 1 780,1331.7969 L780,1206.7969 A2.5,2.5 0 0 1 782.5,1204.2969 " fill="none" style="stroke:#000000;stroke-width:1.5;"/><line style="stroke:#000000;stroke-width:1.5;" x1="780" x2="828" y1="1226.5938" y2="1226.5938"/><text fill="#000000" font-family="sans-serif" font-size="14" font-weight="bold" lengthAdjust="spacing" textLength="35" x="784" y="1219.292">Web</text></g><!--MD5=[ae253559f54795dce2cf783ca8637da0]
cluster SQLServe--><g id="cluster_SQLServe"><path d="M564.5,1196.2969 L642.5,1196.2969 A3.75,3.75 0 0 1 645,1198.7969 L652,1218.5938 L753.5,1218.5938 A2.5,2.5 0 0 1 756,1221.0938 L756,1339.7969 A2.5,2.5 0 0 1 753.5,1342.2969 L564.5,1342.2969 A2.5,2.5 0 0 1 562,1339.7969 L562,1198.7969 A2.5,2.5 0 0 1 564.5,1196.2969 " fill="none" style="stroke:#000000;stroke-width:1.5;"/><line style="stroke:#000000;stroke-width:1.5;" x1="562" x2="652" y1="1218.5938" y2="1218.5938"/><text fill="#000000" font-family="sans-serif" font-size="14" font-weight="bold" lengthAdjust="spacing" textLength="77" x="566" y="1211.292">SQLServe</text></g><!--MD5=[8a3da3bce30969cb159398bb7285454c]
cluster Directory--><g id="cluster_Directory"><path d="M314.5,1196.2969 L388.5,1196.2969 A3.75,3.75 0 0 1 391,1198.7969 L398,1218.5938 L535.5,1218.5938 A2.5,2.5 0 0 1 538,1221.0938 L538,1339.7969 A2.5,2.5 0 0 1 535.5,1342.2969 L314.5,1342.2969 A2.5,2.5 0 0 1 312,1339.7969 L312,1198.7969 A2.5,2.5 0 0 1 314.5,1196.2969 " fill="none" style="stroke:#000000;stroke-width:1.5;"/><line style="stroke:#000000;stroke-width:1.5;" x1="312" x2="398" y1="1218.5938" y2="1218.5938"/><text fill="#000000" font-family="sans-serif" font-size="14" font-weight="bold" lengthAdjust="spacing" textLength="73" x="316" y="1211.292">Directory</text></g><!--MD5=[242b615ddd0ced5440ca57d6e73df06a]
cluster Script--><g id="cluster_Script"><path d="M104.5,1196.2969 L151.5,1196.2969 A3.75,3.75 0 0 1 154,1198.7969 L161,1218.5938 L285.5,1218.5938 A2.5,2.5 0 0 1 288,1221.0938 L288,1339.7969 A2.5,2.5 0 0 1 285.5,1342.2969 L104.5,1342.2969 A2.5,2.5 0 0 1 102,1339.7969 L102,1198.7969 A2.5,2.5 0 0 1 104.5,1196.2969 " fill="none" style="stroke:#000000;stroke-width:1.5;"/><line style="stroke:#000000;stroke-width:1.5;" x1="102" x2="161" y1="1218.5938" y2="1218.5938"/><text fill="#000000" font-family="sans-serif" font-size="14" font-weight="bold" lengthAdjust="spacing" textLength="46" x="106" y="1211.292">Script</text></g><!--MD5=[f2065b61eb6e7c73ae09a79793bff52c]
entity Linux@6-7-1\nVersion: 6.7.1\nRelease: Apr/14/2025\nCVE: Unpatched--><g id="elem_Linux@6-7-1\nVersion: 6.7.1\nRelease: Apr/14/2025\nCVE: Unpatched"><rect fill="#FFCCCC" height="95.1875" rx="2.5" ry="2.5" style="stroke:#181818;stroke-width:0.5;" width="192" x="736" y="223.2969"/><rect fill="#FFCCCC" height="10" style="stroke:#181818;stroke-width:0.5;" width="15" x="908" y="228.2969"/><rect fill="#FFCCCC" height="2" style="stroke:#181818;stroke-width:0.5;" width="4" x="906" y="230.2969"/><rect fill="#FFCCCC" height="2" style="stroke:#181818;stroke-width:0.5;" width="4" x="906" y="234.2969"/><text fill="#000000" font-family="sans-serif" font-size="14" lengthAdjust="spacing" textLength="86" x="751" y="256.292">Linux@6-7-1</text><text fill="#000000" font-family="sans-serif" font-size="14" lengthAdjust="spacing" textLength="96" x="751" y="272.5889">Version: 6.7.1</text><text fill="#000000" font-family="sans-serif" font-size="14" lengthAdjust="spacing" textLength="152" x="751" y="288.8857">Release: Apr/14/2025</text><text fill="#000000" font-family="sans-serif" font-size="14" lengthAdjust="spacing" textLength="113" x="751" y="305.1826">CVE: Unpatched</text></g><!--MD5=[368b629de9f8377f740fc36c7cef1880]
entity apache@2-4-58\nVersion: 2.4.55\nLatest: 2.4.58\nStatus: Outdated--><g id="elem_apache@2-4-58\nVersion: 2.4.55\nLatest: 2.4.58\nStatus: Outdated"><rect fill="#FFF2CC" height="95.1875" rx="2.5" ry="2.5" style="stroke:#181818;stroke-width:0.5;" width="158" x="522" y="223.2969"/><rect fill="#FFF2CC" height="10" style="stroke:#181818;stroke-width:0.5;" width="15" x="660" y="228.2969"/><rect fill="#FFF2CC" height="2" style="stroke:#181818;stroke-width:0.5;" width="4" x="658" y="230.2969"/><rect fill="#FFF2CC" height="2" style="stroke:#181818;stroke-width:0.5;" width="4" x="658" y="234.2969"/><text fill="#000000" font-family="sans-serif" font-size="14" lengthAdjust="spacing" textLength="111" x="537" y="256.292">apache@2-4-58</text><text fill="#000000" font-family="sans-serif" font-size="14" lengthAdjust="spacing" textLength="105" x="537" y="272.5889">Version: 2.4.55</text><text fill="#000000" font-family="sans-serif" font-size="14" lengthAdjust="spacing" textLength="95" x="537" y="288.8857">Latest: 2.4.58</text><text fill="#000000" font-family="sans-serif" font-size="14" lengthAdjust="spacing" textLength="118" x="537" y="305.1826">Status: Outdated</text></g><!--MD5=[f0c100012c9f390ab6d3eedb818bd0bc]
entity MySQL@8-0-41\nVersion: 8.0.41\nLatest: 8.0.41\nStatus: Current--><g id="elem_MySQL@8-0-41\nVersion: 8.0.41\nLatest: 8.0.41\nStatus: Current"><rect fill="#CCFFCC" height="95.1875" rx="2.5" ry="2.5" style="stroke:#181818;stroke-width:0.5;" width="146" x="320" y="223.2969"/><rect fill="#CCFFCC" height="10" style="stroke:#181818;stroke-width:0.5;" width="15" x="446" y="228.2969"/><rect fill="#CCFFCC" height="2" style="stroke:#181818;stroke-width:0.5;" width="4" x="444" y="230.2969"/><rect fill="#CCFFCC" height="2" style="stroke:#181818;stroke-width:0.5;" width="4" x="444" y="234.2969"/><text fill="#000000" font-family="sans-serif" font-size="14" lengthAdjust="spacing" textLength="106" x="335" y="256.292">MySQL@8-0-41</text><text fill="#000000" font-family="sans-serif" font-size="14" lengthAdjust="spacing" textLength="105" x="335" y="272.5889">Version: 8.0.41</text><text fill="#000000" font-family="sans-serif" font-size="14" lengthAdjust="spacing" textLength="95" x="335" y="288.8857">Latest: 8.0.41</text><text fill="#000000" font-family="sans-serif" font-size="14" lengthAdjust="spacing" textLength="105" x="335" y="305.1826">Status: Current</text></g><!--MD5=[30a89ea5d16cce0ebb1ab1901d1dcc5b]
entity PHP@8-2-12\nVersion: 8.2.12\nLatest: 8.2.12\nStatus: Current--><g id="elem_PHP@8-2-12\nVersion: 8.2.12\nLatest: 8.2.12\nStatus: Current"><rect fill="#CCFFCC" height="95.1875" rx="2.5" ry="2.5" style="stroke:#181818;stroke-width:0.5;" width="145" x="118.5" y="223.2969"/><rect fill="#CCFFCC" height="10" style="stroke:#181818;stroke-width:0.5;" width="15" x="243.5" y="228.2969"/><rect fill="#CCFFCC" height="2" style="stroke:#181818;stroke-width:0.5;" width="4" x="241.5" y="230.2969"/><rect fill="#CCFFCC" height="2" style="stroke:#181818;stroke-width:0.5;" width="4" x="241.5" y="234.2969"/><text fill="#000000" font-family="sans-serif" font-size="14" lengthAdjust="spacing" textLength="88" x="133.5" y="256.292">PHP@8-2-12</text><text fill="#000000" font-family="sans-serif" font-size="14" lengthAdjust="spacing" textLength="105" x="133.5" y="272.5889">Version: 8.2.12</text><text fill="#000000" font-family="sans-serif" font-size="14" lengthAdjust="spacing" textLength="95" x="133.5" y="288.8857">Latest: 8.2.12</text><text fill="#000000" font-family="sans-serif" font-size="14" lengthAdjust="spacing" textLength="105" x="133.5" y="305.1826">Status: Current</text></g><!--MD5=[fd1e7456961556b88f3caf1d6260b00c]
entity OkHttp@4-9-3\nVersion: 4.9.3\nLatest: 4.9.3\nStatus: Current--><g id="elem_OkHttp@4-9-3\nVersion: 4.9.3\nLatest: 4.9.3\nStatus: Current"><rect fill="#CCFFCC" height="95.1875" rx="2.5" ry="2.5" style="stroke:#181818;stroke-width:0.5;" width="145" x="760.5" y="559.2969"/><rect fill="#CCFFCC" height="10" style="stroke:#181818;stroke-width:0.5;" width="15" x="885.5" y="564.2969"/><rect fill="#CCFFCC" height="2" style="stroke:#181818;stroke-width:0.5;" width="4" x="883.5" y="566.2969"/><rect fill="#CCFFCC" height="2" style="stroke:#181818;stroke-width:0.5;" width="4" x="883.5" y="570.2969"/><text fill="#000000" font-family="sans-serif" font-size="14" lengthAdjust="spacing" textLength="99" x="775.5" y="592.292">OkHttp@4-9-3</text><text fill="#000000" font-family="sans-serif" font-size="14" lengthAdjust="spacing" textLength="96" x="775.5" y="608.5889">Version: 4.9.3</text><text fill="#000000" font-family="sans-serif" font-size="14" lengthAdjust="spacing" textLength="86" x="775.5" y="624.8857">Latest: 4.9.3</text><text fill="#000000" font-family="sans-serif" font-size="14" lengthAdjust="spacing" textLength="105" x="775.5" y="641.1826">Status: Current</text></g><!--MD5=[1153675e0e699a0d97413456d3ab720f]
entity Retrofit@2-9-0\nVersion: 2.8.0\nLatest: 2.9.0\nStatus: Outdated--><g id="elem_Retrofit@2-9-0\nVersion: 2.8.0\nLatest: 2.9.0\nStatus: Outdated"><rect fill="#FFF2CC" height="95.1875" rx="2.5" ry="2.5" style="stroke:#181818;stroke-width:0.5;" width="158" x="546" y="559.2969"/><rect fill="#FFF2CC" height="10" style="stroke:#181818;stroke-width:0.5;" width="15" x="684" y="564.2969"/><rect fill="#FFF2CC" height="2" style="stroke:#181818;stroke-width:0.5;" width="4" x="682" y="566.2969"/><rect fill="#FFF2CC" height="2" style="stroke:#181818;stroke-width:0.5;" width="4" x="682" y="570.2969"/><text fill="#000000" font-family="sans-serif" font-size="14" lengthAdjust="spacing" textLength="101" x="561" y="592.292">Retrofit@2-9-0</text><text fill="#000000" font-family="sans-serif" font-size="14" lengthAdjust="spacing" textLength="96" x="561" y="608.5889">Version: 2.8.0</text><text fill="#000000" font-family="sans-serif" font-size="14" lengthAdjust="spacing" textLength="86" x="561" y="624.8857">Latest: 2.9.0</text><text fill="#000000" font-family="sans-serif" font-size="14" lengthAdjust="spacing" textLength="118" x="561" y="641.1826">Status: Outdated</text></g><!--MD5=[52abe218501e8503716b65ed99d33e49]
entity SQLite@3-39\nVersion: 3.39\nLatest: 3.44\nStatus: Outdated--><g id="elem_SQLite@3-39\nVersion: 3.39\nLatest: 3.44\nStatus: Outdated"><rect fill="#FFF2CC" height="95.1875" rx="2.5" ry="2.5" style="stroke:#181818;stroke-width:0.5;" width="158" x="332" y="559.2969"/><rect fill="#FFF2CC" height="10" style="stroke:#181818;stroke-width:0.5;" width="15" x="470" y="564.2969"/><rect fill="#FFF2CC" height="2" style="stroke:#181818;stroke-width:0.5;" width="4" x="468" y="566.2969"/><rect fill="#FFF2CC" height="2" style="stroke:#181818;stroke-width:0.5;" width="4" x="468" y="570.2969"/><text fill="#000000" font-family="sans-serif" font-size="14" lengthAdjust="spacing" textLength="90" x="347" y="592.292">SQLite@3-39</text><text fill="#000000" font-family="sans-serif" font-size="14" lengthAdjust="spacing" textLength="92" x="347" y="608.5889">Version: 3.39</text><text fill="#000000" font-family="sans-serif" font-size="14" lengthAdjust="spacing" textLength="82" x="347" y="624.8857">Latest: 3.44</text><text fill="#000000" font-family="sans-serif" font-size="14" lengthAdjust="spacing" textLength="118" x="347" y="641.1826">Status: Outdated</text></g><!--MD5=[586aeb759208fb178c50e5ef31e5aa00]
entity Kotlin@1-8-0\nVersion: 1.8.0\nLatest: 1.9.21\nStatus: Outdated--><g id="elem_Kotlin@1-8-0\nVersion: 1.8.0\nLatest: 1.9.21\nStatus: Outdated"><rect fill="#FFF2CC" height="95.1875" rx="2.5" ry="2.5" style="stroke:#181818;stroke-width:0.5;" width="158" x="118" y="559.2969"/><rect fill="#FFF2CC" height="10" style="stroke:#181818;stroke-width:0.5;" width="15" x="256" y="564.2969"/><rect fill="#FFF2CC" height="2" style="stroke:#181818;stroke-width:0.5;" width="4" x="254" y="566.2969"/><rect fill="#FFF2CC" height="2" style="stroke:#181818;stroke-width:0.5;" width="4" x="254" y="570.2969"/><text fill="#000000" font-family="sans-serif" font-size="14" lengthAdjust="spacing" textLength="89" x="133" y="592.292">Kotlin@1-8-0</text><text fill="#000000" font-family="sans-serif" font-size="14" lengthAdjust="spacing" textLength="96" x="133" y="608.5889">Version: 1.8.0</text><text fill="#000000" font-family="sans-serif" font-size="14" lengthAdjust="spacing" textLength="95" x="133" y="624.8857">Latest: 1.9.21</text><text fill="#000000" font-family="sans-serif" font-size="14" lengthAdjust="spacing" textLength="118" x="133" y="641.1826">Status: Outdated</text></g><!--MD5=[9a158eec26e604c4f99a9c5f9aaa6654]
entity Alamofire@5-6-4\nVersion: 5.6.4\nLatest: 5.6.4\nStatus: Current--><g id="elem_Alamofire@5-6-4\nVersion: 5.6.4\nLatest: 5.6.4\nStatus: Current"><rect fill="#CCFFCC" height="95.1875" rx="2.5" ry="2.5" style="stroke:#181818;stroke-width:0.5;" width="154" x="736" y="895.2969"/><rect fill="#CCFFCC" height="10" style="stroke:#181818;stroke-width:0.5;" width="15" x="870" y="900.2969"/><rect fill="#CCFFCC" height="2" style="stroke:#181818;stroke-width:0.5;" width="4" x="868" y="902.2969"/><rect fill="#CCFFCC" height="2" style="stroke:#181818;stroke-width:0.5;" width="4" x="868" y="906.2969"/><text fill="#000000" font-family="sans-serif" font-size="14" lengthAdjust="spacing" textLength="114" x="751" y="928.292">Alamofire@5-6-4</text><text fill="#000000" font-family="sans-serif" font-size="14" lengthAdjust="spacing" textLength="96" x="751" y="944.5889">Version: 5.6.4</text><text fill="#000000" font-family="sans-serif" font-size="14" lengthAdjust="spacing" textLength="86" x="751" y="960.8857">Latest: 5.6.4</text><text fill="#000000" font-family="sans-serif" font-size="14" lengthAdjust="spacing" textLength="105" x="751" y="977.1826">Status: Current</text></g><!--MD5=[d5b2e3637cbcc39756d02ae5ffe01c8d]
entity CoreData@17\nVersion: 17\nLatest: 17\nStatus: Current--><g id="elem_CoreData@17\nVersion: 17\nLatest: 17\nStatus: Current"><rect fill="#CCFFCC" height="95.1875" rx="2.5" ry="2.5" style="stroke:#181818;stroke-width:0.5;" width="145" x="534.5" y="895.2969"/><rect fill="#CCFFCC" height="10" style="stroke:#181818;stroke-width:0.5;" width="15" x="659.5" y="900.2969"/><rect fill="#CCFFCC" height="2" style="stroke:#181818;stroke-width:0.5;" width="4" x="657.5" y="902.2969"/><rect fill="#CCFFCC" height="2" style="stroke:#181818;stroke-width:0.5;" width="4" x="657.5" y="906.2969"/><text fill="#000000" font-family="sans-serif" font-size="14" lengthAdjust="spacing" textLength="97" x="549.5" y="928.292">CoreData@17</text><text fill="#000000" font-family="sans-serif" font-size="14" lengthAdjust="spacing" textLength="79" x="549.5" y="944.5889">Version: 17</text><text fill="#000000" font-family="sans-serif" font-size="14" lengthAdjust="spacing" textLength="69" x="549.5" y="960.8857">Latest: 17</text><text fill="#000000" font-family="sans-serif" font-size="14" lengthAdjust="spacing" textLength="105" x="549.5" y="977.1826">Status: Current</text></g><!--MD5=[85c753b8a1625d50bb9af6de7e173009]
entity SwiftUI@5-0\nVersion: 5.0\nLatest: 5.0\nStatus: Current--><g id="elem_SwiftUI@5-0\nVersion: 5.0\nLatest: 5.0\nStatus: Current"><rect fill="#CCFFCC" height="95.1875" rx="2.5" ry="2.5" style="stroke:#181818;stroke-width:0.5;" width="145" x="332.5" y="895.2969"/><rect fill="#CCFFCC" height="10" style="stroke:#181818;stroke-width:0.5;" width="15" x="457.5" y="900.2969"/><rect fill="#CCFFCC" height="2" style="stroke:#181818;stroke-width:0.5;" width="4" x="455.5" y="902.2969"/><rect fill="#CCFFCC" height="2" style="stroke:#181818;stroke-width:0.5;" width="4" x="455.5" y="906.2969"/><text fill="#000000" font-family="sans-serif" font-size="14" lengthAdjust="spacing" textLength="82" x="347.5" y="928.292">SwiftUI@5-0</text><text fill="#000000" font-family="sans-serif" font-size="14" lengthAdjust="spacing" textLength="83" x="347.5" y="944.5889">Version: 5.0</text><text fill="#000000" font-family="sans-serif" font-size="14" lengthAdjust="spacing" textLength="73" x="347.5" y="960.8857">Latest: 5.0</text><text fill="#000000" font-family="sans-serif" font-size="14" lengthAdjust="spacing" textLength="105" x="347.5" y="977.1826">Status: Current</text></g><!--MD5=[1de78ff2a422527806459cea9cb3f5a5]
entity Swift@5-9\nVersion: 5.9\nLatest: 5.10\nStatus: Outdated--><g id="elem_Swift@5-9\nVersion: 5.9\nLatest: 5.10\nStatus: Outdated"><rect fill="#FFF2CC" height="95.1875" rx="2.5" ry="2.5" style="stroke:#181818;stroke-width:0.5;" width="158" x="118" y="895.2969"/><rect fill="#FFF2CC" height="10" style="stroke:#181818;stroke-width:0.5;" width="15" x="256" y="900.2969"/><rect fill="#FFF2CC" height="2" style="stroke:#181818;stroke-width:0.5;" width="4" x="254" y="902.2969"/><rect fill="#FFF2CC" height="2" style="stroke:#181818;stroke-width:0.5;" width="4" x="254" y="906.2969"/><text fill="#000000" font-family="sans-serif" font-size="14" lengthAdjust="spacing" textLength="69" x="133" y="928.292">Swift@5-9</text><text fill="#000000" font-family="sans-serif" font-size="14" lengthAdjust="spacing" textLength="83" x="133" y="944.5889">Version: 5.9</text><text fill="#000000" font-family="sans-serif" font-size="14" lengthAdjust="spacing" textLength="82" x="133" y="960.8857">Latest: 5.10</text><text fill="#000000" font-family="sans-serif" font-size="14" lengthAdjust="spacing" textLength="118" x="133" y="977.1826">Status: Outdated</text></g><!--MD5=[e1a54e43ab0334e1a11a28ce894ac3f3]
entity IIS@10-0\nVersion: 10.0\nCVE: Unpatched--><g id="elem_IIS@10-0\nVersion: 10.0\nCVE: Unpatched"><rect fill="#FFCCCC" height="78.8906" rx="2.5" ry="2.5" style="stroke:#181818;stroke-width:0.5;" width="153" x="796.5" y="1239.2969"/><rect fill="#FFCCCC" height="10" style="stroke:#181818;stroke-width:0.5;" width="15" x="929.5" y="1244.2969"/><rect fill="#FFCCCC" height="2" style="stroke:#181818;stroke-width:0.5;" width="4" x="927.5" y="1246.2969"/><rect fill="#FFCCCC" height="2" style="stroke:#181818;stroke-width:0.5;" width="4" x="927.5" y="1250.2969"/><text fill="#000000" font-family="sans-serif" font-size="14" lengthAdjust="spacing" textLength="61" x="811.5" y="1272.292">IIS@10-0</text><text fill="#000000" font-family="sans-serif" font-size="14" lengthAdjust="spacing" textLength="92" x="811.5" y="1288.5889">Version: 10.0</text><text fill="#000000" font-family="sans-serif" font-size="14" lengthAdjust="spacing" textLength="113" x="811.5" y="1304.8857">CVE: Unpatched</text></g><!--MD5=[117d77b53d0713225d994a88a70f809c]
entity SQLServer@2022\nVersion: 2022\nLatest: 2022\nStatus: Current--><g id="elem_SQLServer@2022\nVersion: 2022\nLatest: 2022\nStatus: Current"><rect fill="#CCFFCC" height="95.1875" rx="2.5" ry="2.5" style="stroke:#181818;stroke-width:0.5;" width="161" x="578.5" y="1231.2969"/><rect fill="#CCFFCC" height="10" style="stroke:#181818;stroke-width:0.5;" width="15" x="719.5" y="1236.2969"/><rect fill="#CCFFCC" height="2" style="stroke:#181818;stroke-width:0.5;" width="4" x="717.5" y="1238.2969"/><rect fill="#CCFFCC" height="2" style="stroke:#181818;stroke-width:0.5;" width="4" x="717.5" y="1242.2969"/><text fill="#000000" font-family="sans-serif" font-size="14" lengthAdjust="spacing" textLength="121" x="593.5" y="1264.292">SQLServer@2022</text><text fill="#000000" font-family="sans-serif" font-size="14" lengthAdjust="spacing" textLength="97" x="593.5" y="1280.5889">Version: 2022</text><text fill="#000000" font-family="sans-serif" font-size="14" lengthAdjust="spacing" textLength="87" x="593.5" y="1296.8857">Latest: 2022</text><text fill="#000000" font-family="sans-serif" font-size="14" lengthAdjust="spacing" textLength="105" x="593.5" y="1313.1826">Status: Current</text></g><!--MD5=[5e56f8be643fce39059c701da5db4a4c]
entity ActiveDirectory@2022\nVersion: 2022\nLatest: 2022\nStatus: Current--><g id="elem_ActiveDirectory@2022\nVersion: 2022\nLatest: 2022\nStatus: Current"><rect fill="#CCFFCC" height="95.1875" rx="2.5" ry="2.5" style="stroke:#181818;stroke-width:0.5;" width="193" x="328.5" y="1231.2969"/><rect fill="#CCFFCC" height="10" style="stroke:#181818;stroke-width:0.5;" width="15" x="501.5" y="1236.2969"/><rect fill="#CCFFCC" height="2" style="stroke:#181818;stroke-width:0.5;" width="4" x="499.5" y="1238.2969"/><rect fill="#CCFFCC" height="2" style="stroke:#181818;stroke-width:0.5;" width="4" x="499.5" y="1242.2969"/><text fill="#000000" font-family="sans-serif" font-size="14" lengthAdjust="spacing" textLength="153" x="343.5" y="1264.292">ActiveDirectory@2022</text><text fill="#000000" font-family="sans-serif" font-size="14" lengthAdjust="spacing" textLength="97" x="343.5" y="1280.5889">Version: 2022</text><text fill="#000000" font-family="sans-serif" font-size="14" lengthAdjust="spacing" textLength="87" x="343.5" y="1296.8857">Latest: 2022</text><text fill="#000000" font-family="sans-serif" font-size="14" lengthAdjust="spacing" textLength="105" x="343.5" y="1313.1826">Status: Current</text></g><!--MD5=[b78ae33e69e4500cc8454726cbefb23b]
entity PowerShell@7-4\nVersion: 7.4\nLatest: 7.4\nStatus: Current--><g id="elem_PowerShell@7-4\nVersion: 7.4\nLatest: 7.4\nStatus: Current"><rect fill="#CCFFCC" height="95.1875" rx="2.5" ry="2.5" style="stroke:#181818;stroke-width:0.5;" width="153" x="118.5" y="1231.2969"/><rect fill="#CCFFCC" height="10" style="stroke:#181818;stroke-width:0.5;" width="15" x="251.5" y="1236.2969"/><rect fill="#CCFFCC" height="2" style="stroke:#181818;stroke-width:0.5;" width="4" x="249.5" y="1238.2969"/><rect fill="#CCFFCC" height="2" style="stroke:#181818;stroke-width:0.5;" width="4" x="249.5" y="1242.2969"/><text fill="#000000" font-family="sans-serif" font-size="14" lengthAdjust="spacing" textLength="113" x="133.5" y="1264.292">PowerShell@7-4</text><text fill="#000000" font-family="sans-serif" font-size="14" lengthAdjust="spacing" textLength="83" x="133.5" y="1280.5889">Version: 7.4</text><text fill="#000000" font-family="sans-serif" font-size="14" lengthAdjust="spacing" textLength="73" x="133.5" y="1296.8857">Latest: 7.4</text><text fill="#000000" font-family="sans-serif" font-size="14" lengthAdjust="spacing" textLength="105" x="133.5" y="1313.1826">Status: Current</text></g><!--MD5=[0d6859ad66d89bf99f014f2faf269087]
link LINUX to ANDROID--><!--MD5=[49d7d11db607c7034ef3acbefc719fc3]
link ANDROID to IOS--><!--MD5=[56312aa9fd309fcf078e12495975c1e7]
link IOS to WINDOWS--><!--MD5=[a91b047eaac467c49e8ed607153cbdad]
@startuml
title "OS Ecosystem Overview - Mon, Apr 14, 2025"

package "Software Ecosystem: Linux | Windows | Android | iOS" {

  ' Linux OS block
  package "Linux OS" as LINUX {
    package "LAMP stack" {
      package "Linux" {
        component "Linux@6-7-1\nVersion: 6.7.1\nRelease: Apr/14/2025\nCVE: Unpatched" #FFCCCC
      }
      package "apache" {
        component "apache@2-4-58\nVersion: 2.4.55\nLatest: 2.4.58\nStatus: Outdated" #FFF2CC
      }
      package "mysql" {
        component "MySQL@8-0-41\nVersion: 8.0.41\nLatest: 8.0.41\nStatus: Current" #CCFFCC
      }
      package "php" {
        component "PHP@8-2-12\nVersion: 8.2.12\nLatest: 8.2.12\nStatus: Current" #CCFFCC
      }
    }
  }

  ' Android OS block
  package "Android OS" as ANDROID {
    package "Mobile Stack" {
      package "Library 1" {
        component "OkHttp@4-9-3\nVersion: 4.9.3\nLatest: 4.9.3\nStatus: Current" #CCFFCC
      }
      package "Library 2" {
        component "Retrofit@2-9-0\nVersion: 2.8.0\nLatest: 2.9.0\nStatus: Outdated" #FFF2CC
      }
      package "SQLite" {
        component "SQLite@3-39\nVersion: 3.39\nLatest: 3.44\nStatus: Outdated" #FFF2CC
      }
      package "Lang" {
        component "Kotlin@1-8-0\nVersion: 1.8.0\nLatest: 1.9.21\nStatus: Outdated" #FFF2CC
      }
    }
  }

  ' iOS block
  package "iOS" as IOS {
    package "App Stack" {
      package "Networking" {
        component "Alamofire@5-6-4\nVersion: 5.6.4\nLatest: 5.6.4\nStatus: Current" #CCFFCC
      }
      package "Storage" {
        component "CoreData@17\nVersion: 17\nLatest: 17\nStatus: Current" #CCFFCC
      }
      package "UI" {
        component "SwiftUI@5-0\nVersion: 5.0\nLatest: 5.0\nStatus: Current" #CCFFCC
      }
      package "Language" {
        component "Swift@5-9\nVersion: 5.9\nLatest: 5.10\nStatus: Outdated" #FFF2CC
      }
    }
  }

  ' Windows OS block
  package "Windows OS" as WINDOWS {
    package "Server Stack" {
      package "Web" {
        component "IIS@10-0\nVersion: 10.0\nCVE: Unpatched" #FFCCCC
      }
      package "SQLServe" {
        component "SQLServer@2022\nVersion: 2022\nLatest: 2022\nStatus: Current" #CCFFCC
      }
      package "Directory" {
        component "ActiveDirectory@2022\nVersion: 2022\nLatest: 2022\nStatus: Current" #CCFFCC
      }
      package "Script" {
        component "PowerShell@7-4\nVersion: 7.4\nLatest: 7.4\nStatus: Current" #CCFFCC
      }
    }
  }

  ' Enforce top-down layout using hidden links
  LINUX -[hidden]-> ANDROID
  ANDROID -[hidden]-> IOS
  IOS -[hidden]-> WINDOWS
}
@enduml

@startuml
title "OS Ecosystem Overview - Mon, Apr 14, 2025"

package "Software Ecosystem: Linux | Windows | Android | iOS" {

  package "Linux OS" as LINUX {
    package "LAMP stack" {
      package "Linux" {
        component "Linux@6-7-1\nVersion: 6.7.1\nRelease: Apr/14/2025\nCVE: Unpatched" #FFCCCC
      }
      package "apache" {
        component "apache@2-4-58\nVersion: 2.4.55\nLatest: 2.4.58\nStatus: Outdated" #FFF2CC
      }
      package "mysql" {
        component "MySQL@8-0-41\nVersion: 8.0.41\nLatest: 8.0.41\nStatus: Current" #CCFFCC
      }
      package "php" {
        component "PHP@8-2-12\nVersion: 8.2.12\nLatest: 8.2.12\nStatus: Current" #CCFFCC
      }
    }
  }

  package "Android OS" as ANDROID {
    package "Mobile Stack" {
      package "Library 1" {
        component "OkHttp@4-9-3\nVersion: 4.9.3\nLatest: 4.9.3\nStatus: Current" #CCFFCC
      }
      package "Library 2" {
        component "Retrofit@2-9-0\nVersion: 2.8.0\nLatest: 2.9.0\nStatus: Outdated" #FFF2CC
      }
      package "SQLite" {
        component "SQLite@3-39\nVersion: 3.39\nLatest: 3.44\nStatus: Outdated" #FFF2CC
      }
      package "Lang" {
        component "Kotlin@1-8-0\nVersion: 1.8.0\nLatest: 1.9.21\nStatus: Outdated" #FFF2CC
      }
    }
  }

  package "iOS" as IOS {
    package "App Stack" {
      package "Networking" {
        component "Alamofire@5-6-4\nVersion: 5.6.4\nLatest: 5.6.4\nStatus: Current" #CCFFCC
      }
      package "Storage" {
        component "CoreData@17\nVersion: 17\nLatest: 17\nStatus: Current" #CCFFCC
      }
      package "UI" {
        component "SwiftUI@5-0\nVersion: 5.0\nLatest: 5.0\nStatus: Current" #CCFFCC
      }
      package "Language" {
        component "Swift@5-9\nVersion: 5.9\nLatest: 5.10\nStatus: Outdated" #FFF2CC
      }
    }
  }

  package "Windows OS" as WINDOWS {
    package "Server Stack" {
      package "Web" {
        component "IIS@10-0\nVersion: 10.0\nCVE: Unpatched" #FFCCCC
      }
      package "SQLServe" {
        component "SQLServer@2022\nVersion: 2022\nLatest: 2022\nStatus: Current" #CCFFCC
      }
      package "Directory" {
        component "ActiveDirectory@2022\nVersion: 2022\nLatest: 2022\nStatus: Current" #CCFFCC
      }
      package "Script" {
        component "PowerShell@7-4\nVersion: 7.4\nLatest: 7.4\nStatus: Current" #CCFFCC
      }
    }
  }

  LINUX -[hidden]-> ANDROID
  ANDROID -[hidden]-> IOS
  IOS -[hidden]-> WINDOWS
}
@enduml

PlantUML version 1.2022.7(Mon Aug 22 17:01:30 UTC 2022)
(GPL source distribution)
Java Runtime: OpenJDK Runtime Environment
JVM: OpenJDK 64-Bit Server VM
Default Encoding: UTF-8
Language: en
Country: null
--></g></svg>