<?xml version="1.0" encoding="UTF-8" standalone="no"?><svg xmlns="http://www.w3.org/2000/svg" xmlns:xlink="http://www.w3.org/1999/xlink" contentStyleType="text/css" height="305px" preserveAspectRatio="none" style="width:952px;height:305px;background:#FFFFFF;" version="1.1" viewBox="0 0 952 305" width="952px" zoomAndPan="magnify"><defs/><g><!--MD5=[6732105489a1b20e94927f1c65776f2a]
entity update_server--><g id="elem_update_server"><rect fill="#F1F1F1" height="46.2969" rx="2.5" ry="2.5" style="stroke:#181818;stroke-width:0.5;" width="138" x="377.64" y="7"/><rect fill="#F1F1F1" height="10" style="stroke:#181818;stroke-width:0.5;" width="15" x="495.64" y="12"/><rect fill="#F1F1F1" height="2" style="stroke:#181818;stroke-width:0.5;" width="4" x="493.64" y="14"/><rect fill="#F1F1F1" height="2" style="stroke:#181818;stroke-width:0.5;" width="4" x="493.64" y="18"/><text fill="#000000" font-family="sans-serif" font-size="14" lengthAdjust="spacing" textLength="98" x="392.64" y="39.9951">Update Server</text></g><!--MD5=[5d9a701392df431451fd161957b097e1]
entity embedded_device1--><g id="elem_embedded_device1"><rect fill="#F1F1F1" height="46.2969" rx="2.5" ry="2.5" style="stroke:#181818;stroke-width:0.5;" width="180" x="15.64" y="130"/><rect fill="#F1F1F1" height="10" style="stroke:#181818;stroke-width:0.5;" width="15" x="175.64" y="135"/><rect fill="#F1F1F1" height="2" style="stroke:#181818;stroke-width:0.5;" width="4" x="173.64" y="137"/><rect fill="#F1F1F1" height="2" style="stroke:#181818;stroke-width:0.5;" width="4" x="173.64" y="141"/><text fill="#000000" font-family="sans-serif" font-size="14" lengthAdjust="spacing" textLength="140" x="30.64" y="162.9951">Embedded Device 1</text></g><!--MD5=[54c4c2e7a24c2b1d2fea7b0bfb003f18]
entity embedded_device2--><g id="elem_embedded_device2"><rect fill="#F1F1F1" height="46.2969" rx="2.5" ry="2.5" style="stroke:#181818;stroke-width:0.5;" width="180" x="397.64" y="130"/><rect fill="#F1F1F1" height="10" style="stroke:#181818;stroke-width:0.5;" width="15" x="557.64" y="135"/><rect fill="#F1F1F1" height="2" style="stroke:#181818;stroke-width:0.5;" width="4" x="555.64" y="137"/><rect fill="#F1F1F1" height="2" style="stroke:#181818;stroke-width:0.5;" width="4" x="555.64" y="141"/><text fill="#000000" font-family="sans-serif" font-size="14" lengthAdjust="spacing" textLength="140" x="412.64" y="162.9951">Embedded Device 2</text></g><!--MD5=[898cac2c3b15d79ccdce06493aa96103]
entity embedded_device3--><g id="elem_embedded_device3"><rect fill="#F1F1F1" height="46.2969" rx="2.5" ry="2.5" style="stroke:#181818;stroke-width:0.5;" width="180" x="657.64" y="130"/><rect fill="#F1F1F1" height="10" style="stroke:#181818;stroke-width:0.5;" width="15" x="817.64" y="135"/><rect fill="#F1F1F1" height="2" style="stroke:#181818;stroke-width:0.5;" width="4" x="815.64" y="137"/><rect fill="#F1F1F1" height="2" style="stroke:#181818;stroke-width:0.5;" width="4" x="815.64" y="141"/><text fill="#000000" font-family="sans-serif" font-size="14" lengthAdjust="spacing" textLength="140" x="672.64" y="162.9951">Embedded Device 3</text></g><!--MD5=[0171924d90e4b8889794b7c9bca7f9d1]
entity sensor1--><g id="elem_sensor1"><rect fill="#F1F1F1" height="46.2969" rx="2.5" ry="2.5" style="stroke:#181818;stroke-width:0.5;" width="171" x="20.14" y="253"/><rect fill="#F1F1F1" height="10" style="stroke:#181818;stroke-width:0.5;" width="15" x="171.14" y="258"/><rect fill="#F1F1F1" height="2" style="stroke:#181818;stroke-width:0.5;" width="4" x="169.14" y="260"/><rect fill="#F1F1F1" height="2" style="stroke:#181818;stroke-width:0.5;" width="4" x="169.14" y="264"/><text fill="#000000" font-family="sans-serif" font-size="14" lengthAdjust="spacing" textLength="131" x="35.14" y="285.9951">Hydration Sensor 1</text></g><!--MD5=[407bca6816da8e17275c06ae35550d37]
entity sensor2--><g id="elem_sensor2"><rect fill="#F1F1F1" height="46.2969" rx="2.5" ry="2.5" style="stroke:#181818;stroke-width:0.5;" width="171" x="402.14" y="253"/><rect fill="#F1F1F1" height="10" style="stroke:#181818;stroke-width:0.5;" width="15" x="553.14" y="258"/><rect fill="#F1F1F1" height="2" style="stroke:#181818;stroke-width:0.5;" width="4" x="551.14" y="260"/><rect fill="#F1F1F1" height="2" style="stroke:#181818;stroke-width:0.5;" width="4" x="551.14" y="264"/><text fill="#000000" font-family="sans-serif" font-size="14" lengthAdjust="spacing" textLength="131" x="417.14" y="285.9951">Hydration Sensor 2</text></g><!--MD5=[94d24907baad5e8881b39bb56e2b13bc]
entity sensor3--><g id="elem_sensor3"><rect fill="#F1F1F1" height="46.2969" rx="2.5" ry="2.5" style="stroke:#181818;stroke-width:0.5;" width="171" x="662.14" y="253"/><rect fill="#F1F1F1" height="10" style="stroke:#181818;stroke-width:0.5;" width="15" x="813.14" y="258"/><rect fill="#F1F1F1" height="2" style="stroke:#181818;stroke-width:0.5;" width="4" x="811.14" y="260"/><rect fill="#F1F1F1" height="2" style="stroke:#181818;stroke-width:0.5;" width="4" x="811.14" y="264"/><text fill="#000000" font-family="sans-serif" font-size="14" lengthAdjust="spacing" textLength="131" x="677.14" y="285.9951">Hydration Sensor 3</text></g><!--MD5=[a741e4ce0ed51af8eaac0aa308d63e13]
link update_server to embedded_device1--><g id="link_update_server_embedded_device1"><path d="M377.35,34.51 C262.72,41.03 43.86,56.78 20.64,83 C6,99.54 22.18,115.29 44.21,127.55 " fill="none" id="update_server-to-embedded_device1" style="stroke:#181818;stroke-width:1.0;"/><polygon fill="#181818" points="48.69,129.96,42.6456,122.1841,44.2826,127.5989,38.8678,129.2359,48.69,129.96" style="stroke:#181818;stroke-width:1.0;"/><text fill="#000000" font-family="sans-serif" font-size="13" lengthAdjust="spacing" textLength="121" x="21.64" y="96.0669">Sends OTA Update</text></g><!--MD5=[6fee32b28e149ded761589e9e8fb9668]
link embedded_device1 to update_server--><g id="link_embedded_device1_update_server"><path d="M133.02,129.97 C153.33,114.67 182.3,94.95 210.64,83 C262.49,61.13 324.78,47.91 372.35,40.27 " fill="none" id="embedded_device1-to-update_server" style="stroke:#181818;stroke-width:1.0;"/><polygon fill="#181818" points="377.49,39.46,367.9797,36.8999,372.5501,40.2332,369.2168,44.8036,377.49,39.46" style="stroke:#181818;stroke-width:1.0;"/><text fill="#000000" font-family="sans-serif" font-size="13" lengthAdjust="spacing" textLength="137" x="211.64" y="96.0669">Sends Update Status</text></g><!--MD5=[4d8ec8a3bfb68b8dfcad5fb9270ff5fb]
link update_server to embedded_device2--><g id="link_update_server_embedded_device2"><path d="M389.51,53.08 C367.45,65.09 350.18,81.32 362.64,100 C370.31,111.49 381.05,120.45 393.04,127.43 " fill="none" id="update_server-to-embedded_device2" style="stroke:#181818;stroke-width:1.0;"/><polygon fill="#181818" points="397.51,129.91,391.5852,122.0426,393.1392,127.4818,387.7,129.0358,397.51,129.91" style="stroke:#181818;stroke-width:1.0;"/><text fill="#000000" font-family="sans-serif" font-size="13" lengthAdjust="spacing" textLength="121" x="363.64" y="96.0669">Sends OTA Update</text></g><!--MD5=[24280003cd3ca7afffc4ed5dfcc8d0f4]
link embedded_device2 to update_server--><g id="link_embedded_device2_update_server"><path d="M492.32,129.91 C494.29,116.04 495.04,98 489.64,83 C486.3,73.7 480.48,64.88 474.2,57.24 " fill="none" id="embedded_device2-to-update_server" style="stroke:#181818;stroke-width:1.0;"/><polygon fill="#181818" points="470.67,53.12,473.4696,62.5626,473.9157,56.9233,479.5549,57.3694,470.67,53.12" style="stroke:#181818;stroke-width:1.0;"/><text fill="#000000" font-family="sans-serif" font-size="13" lengthAdjust="spacing" textLength="137" x="493.64" y="96.0669">Sends Update Status</text></g><!--MD5=[14a92602f709aff797a81bd920e92487]
link update_server to embedded_device3--><g id="link_update_server_embedded_device3"><path d="M515.82,44.25 C553.39,52.77 600.12,65.55 639.64,83 C666.06,94.66 693.44,112.23 714.03,126.72 " fill="none" id="update_server-to-embedded_device3" style="stroke:#181818;stroke-width:1.0;"/><polygon fill="#181818" points="718.32,129.77,713.2961,121.2989,714.2427,126.876,708.6656,127.8226,718.32,129.77" style="stroke:#181818;stroke-width:1.0;"/><text fill="#000000" font-family="sans-serif" font-size="13" lengthAdjust="spacing" textLength="121" x="671.64" y="96.0669">Sends OTA Update</text></g><!--MD5=[52e7a1d8e4437432f38b3f272aa293e1]
link embedded_device3 to update_server--><g id="link_embedded_device3_update_server"><path d="M782.62,129.81 C800,116.06 814.77,98.19 801.64,83 C766.12,41.89 614.16,32.66 520.95,30.95 " fill="none" id="embedded_device3-to-update_server" style="stroke:#181818;stroke-width:1.0;"/><polygon fill="#181818" points="515.72,30.86,524.6501,35.0137,520.7193,30.9457,524.7872,27.0149,515.72,30.86" style="stroke:#181818;stroke-width:1.0;"/><text fill="#000000" font-family="sans-serif" font-size="13" lengthAdjust="spacing" textLength="137" x="807.64" y="96.0669">Sends Update Status</text></g><!--MD5=[c48b8dee46b7ba155bb148b662a330f9]
link embedded_device1 to sensor1--><g id="link_embedded_device1_sensor1"><path d="M105.64,176.19 C105.64,196.41 105.64,226.31 105.64,247.92 " fill="none" id="embedded_device1-to-sensor1" style="stroke:#181818;stroke-width:1.0;"/><polygon fill="#181818" points="105.64,252.95,109.64,243.95,105.64,247.95,101.64,243.95,105.64,252.95" style="stroke:#181818;stroke-width:1.0;"/><text fill="#000000" font-family="sans-serif" font-size="13" lengthAdjust="spacing" textLength="165" x="106.64" y="219.0669">Updates Sensor Firmware</text></g><!--MD5=[b72d430e24d0fc8c823f8f626fec8ca7]
link embedded_device2 to sensor2--><g id="link_embedded_device2_sensor2"><path d="M487.64,176.19 C487.64,196.41 487.64,226.31 487.64,247.92 " fill="none" id="embedded_device2-to-sensor2" style="stroke:#181818;stroke-width:1.0;"/><polygon fill="#181818" points="487.64,252.95,491.64,243.95,487.64,247.95,483.64,243.95,487.64,252.95" style="stroke:#181818;stroke-width:1.0;"/><text fill="#000000" font-family="sans-serif" font-size="13" lengthAdjust="spacing" textLength="165" x="488.64" y="219.0669">Updates Sensor Firmware</text></g><!--MD5=[d8236b3eca7ee88d55c1ba59b4701fdc]
link embedded_device3 to sensor3--><g id="link_embedded_device3_sensor3"><path d="M747.64,176.19 C747.64,196.41 747.64,226.31 747.64,247.92 " fill="none" id="embedded_device3-to-sensor3" style="stroke:#181818;stroke-width:1.0;"/><polygon fill="#181818" points="747.64,252.95,751.64,243.95,747.64,247.95,743.64,243.95,747.64,252.95" style="stroke:#181818;stroke-width:1.0;"/><text fill="#000000" font-family="sans-serif" font-size="13" lengthAdjust="spacing" textLength="165" x="748.64" y="219.0669">Updates Sensor Firmware</text></g><!--MD5=[5fd42de4c45c21e31e783ac5e099387b]
@startuml
component "Update Server" as update_server
    component "Embedded Device 1" as embedded_device1
    component "Embedded Device 2" as embedded_device2
    component "Embedded Device 3" as embedded_device3
    component "Hydration Sensor 1" as sensor1
    component "Hydration Sensor 2" as sensor2
    component "Hydration Sensor 3" as sensor3

    update_server -down-> embedded_device1 : Sends OTA Update
    update_server -down-> embedded_device2 : Sends OTA Update
    update_server -down-> embedded_device3 : Sends OTA Update

    embedded_device1 -down-> sensor1 : Updates Sensor Firmware
    embedded_device2 -down-> sensor2 : Updates Sensor Firmware
    embedded_device3 -down-> sensor3 : Updates Sensor Firmware

    embedded_device1 -down-> update_server : Sends Update Status
    embedded_device2 -down-> update_server : Sends Update Status
    embedded_device3 -down-> update_server : Sends Update Status
@enduml

PlantUML version 1.2022.7(Mon Aug 22 17:01:30 UTC 2022)
(GPL source distribution)
Java Runtime: OpenJDK Runtime Environment
JVM: OpenJDK 64-Bit Server VM
Default Encoding: UTF-8
Language: en
Country: null
--></g></svg>