<?xml version="1.0" encoding="UTF-8" standalone="no"?><svg xmlns="http://www.w3.org/2000/svg" xmlns:xlink="http://www.w3.org/1999/xlink" contentStyleType="text/css" height="182px" preserveAspectRatio="none" style="width:903px;height:182px;background:#FFFFFF;" version="1.1" viewBox="0 0 903 182" width="903px" zoomAndPan="magnify"><defs/><g><!--MD5=[0899a72d608834086b56170fb6645824]
entity monitoring--><g id="elem_monitoring"><rect fill="#F1F1F1" height="46.2969" rx="2.5" ry="2.5" style="stroke:#181818;stroke-width:0.5;" width="113" x="358.5" y="7"/><rect fill="#F1F1F1" height="10" style="stroke:#181818;stroke-width:0.5;" width="15" x="451.5" y="12"/><rect fill="#F1F1F1" height="2" style="stroke:#181818;stroke-width:0.5;" width="4" x="449.5" y="14"/><rect fill="#F1F1F1" height="2" style="stroke:#181818;stroke-width:0.5;" width="4" x="449.5" y="18"/><text fill="#000000" font-family="sans-serif" font-size="14" lengthAdjust="spacing" textLength="73" x="373.5" y="39.9951">Monitoring</text></g><!--MD5=[0171924d90e4b8889794b7c9bca7f9d1]
entity sensor1--><g id="elem_sensor1"><rect fill="#F1F1F1" height="46.2969" rx="2.5" ry="2.5" style="stroke:#181818;stroke-width:0.5;" width="102" x="7" y="130"/><rect fill="#F1F1F1" height="10" style="stroke:#181818;stroke-width:0.5;" width="15" x="89" y="135"/><rect fill="#F1F1F1" height="2" style="stroke:#181818;stroke-width:0.5;" width="4" x="87" y="137"/><rect fill="#F1F1F1" height="2" style="stroke:#181818;stroke-width:0.5;" width="4" x="87" y="141"/><text fill="#000000" font-family="sans-serif" font-size="14" lengthAdjust="spacing" textLength="62" x="22" y="162.9951">Sensor 1</text></g><!--MD5=[407bca6816da8e17275c06ae35550d37]
entity sensor2--><g id="elem_sensor2"><rect fill="#F1F1F1" height="46.2969" rx="2.5" ry="2.5" style="stroke:#181818;stroke-width:0.5;" width="102" x="150" y="130"/><rect fill="#F1F1F1" height="10" style="stroke:#181818;stroke-width:0.5;" width="15" x="232" y="135"/><rect fill="#F1F1F1" height="2" style="stroke:#181818;stroke-width:0.5;" width="4" x="230" y="137"/><rect fill="#F1F1F1" height="2" style="stroke:#181818;stroke-width:0.5;" width="4" x="230" y="141"/><text fill="#000000" font-family="sans-serif" font-size="14" lengthAdjust="spacing" textLength="62" x="165" y="162.9951">Sensor 2</text></g><!--MD5=[94d24907baad5e8881b39bb56e2b13bc]
entity sensor3--><g id="elem_sensor3"><rect fill="#F1F1F1" height="46.2969" rx="2.5" ry="2.5" style="stroke:#181818;stroke-width:0.5;" width="102" x="293" y="130"/><rect fill="#F1F1F1" height="10" style="stroke:#181818;stroke-width:0.5;" width="15" x="375" y="135"/><rect fill="#F1F1F1" height="2" style="stroke:#181818;stroke-width:0.5;" width="4" x="373" y="137"/><rect fill="#F1F1F1" height="2" style="stroke:#181818;stroke-width:0.5;" width="4" x="373" y="141"/><text fill="#000000" font-family="sans-serif" font-size="14" lengthAdjust="spacing" textLength="62" x="308" y="162.9951">Sensor 3</text></g><!--MD5=[4e8ecd94af36cce41665c9f079adf9fd]
entity backend--><g id="elem_backend"><rect fill="#F1F1F1" height="46.2969" rx="2.5" ry="2.5" style="stroke:#181818;stroke-width:0.5;" width="101" x="436.5" y="130"/><rect fill="#F1F1F1" height="10" style="stroke:#181818;stroke-width:0.5;" width="15" x="517.5" y="135"/><rect fill="#F1F1F1" height="2" style="stroke:#181818;stroke-width:0.5;" width="4" x="515.5" y="137"/><rect fill="#F1F1F1" height="2" style="stroke:#181818;stroke-width:0.5;" width="4" x="515.5" y="141"/><text fill="#000000" font-family="sans-serif" font-size="14" lengthAdjust="spacing" textLength="61" x="451.5" y="162.9951">Backend</text></g><!--MD5=[f50ff5e4cd64f259303fc83dba1819fc]
entity database--><g id="elem_database"><rect fill="#F1F1F1" height="46.2969" rx="2.5" ry="2.5" style="stroke:#181818;stroke-width:0.5;" width="106" x="604" y="130"/><rect fill="#F1F1F1" height="10" style="stroke:#181818;stroke-width:0.5;" width="15" x="690" y="135"/><rect fill="#F1F1F1" height="2" style="stroke:#181818;stroke-width:0.5;" width="4" x="688" y="137"/><rect fill="#F1F1F1" height="2" style="stroke:#181818;stroke-width:0.5;" width="4" x="688" y="141"/><text fill="#000000" font-family="sans-serif" font-size="14" lengthAdjust="spacing" textLength="66" x="619" y="162.9951">Database</text></g><!--MD5=[b1e3d2dcb3697de9e6328d1cb436cbc4]
entity frontend--><g id="elem_frontend"><rect fill="#F1F1F1" height="46.2969" rx="2.5" ry="2.5" style="stroke:#181818;stroke-width:0.5;" width="103" x="745.5" y="130"/><rect fill="#F1F1F1" height="10" style="stroke:#181818;stroke-width:0.5;" width="15" x="828.5" y="135"/><rect fill="#F1F1F1" height="2" style="stroke:#181818;stroke-width:0.5;" width="4" x="826.5" y="137"/><rect fill="#F1F1F1" height="2" style="stroke:#181818;stroke-width:0.5;" width="4" x="826.5" y="141"/><text fill="#000000" font-family="sans-serif" font-size="14" lengthAdjust="spacing" textLength="63" x="760.5" y="162.9951">Frontend</text></g><!--MD5=[35cb6a360805bb121dbb70d2070a162e]
link monitoring to sensor1--><g id="link_monitoring_sensor1"><path d="M358.36,35.09 C280.42,41.61 145.08,56.42 104,83 C88.44,93.06 76.9,110.45 69.27,125.24 " fill="none" id="monitoring-to-sensor1" style="stroke:#181818;stroke-width:1.0;"/><polygon fill="#181818" points="67.03,129.74,74.6166,123.4596,69.2547,125.2622,67.4521,119.9002,67.03,129.74" style="stroke:#181818;stroke-width:1.0;"/><text fill="#000000" font-family="sans-serif" font-size="13" lengthAdjust="spacing" textLength="101" x="105" y="96.0669">Monitors Status</text></g><!--MD5=[64cda0081daf95bb8e3c71410d52edf3]
link monitoring to sensor2--><g id="link_monitoring_sensor2"><path d="M358.36,33.1 C316.91,37.53 261.87,49.86 226,83 C214.33,93.78 208.1,110.43 204.77,124.67 " fill="none" id="monitoring-to-sensor2" style="stroke:#181818;stroke-width:1.0;"/><polygon fill="#181818" points="203.68,129.79,209.4659,121.8198,204.7208,124.8995,201.6411,120.1545,203.68,129.79" style="stroke:#181818;stroke-width:1.0;"/><text fill="#000000" font-family="sans-serif" font-size="13" lengthAdjust="spacing" textLength="101" x="227" y="96.0669">Monitors Status</text></g><!--MD5=[2bbe3e16c32193d36affbcefe267b3b8]
link monitoring to sensor3--><g id="link_monitoring_sensor3"><path d="M369.06,53.22 C357.86,60.99 347.3,70.88 341,83 C334.41,95.68 334.61,111.51 336.7,124.81 " fill="none" id="monitoring-to-sensor3" style="stroke:#181818;stroke-width:1.0;"/><polygon fill="#181818" points="337.62,129.95,339.9602,120.3832,336.7331,125.0293,332.0871,121.8022,337.62,129.95" style="stroke:#181818;stroke-width:1.0;"/><text fill="#000000" font-family="sans-serif" font-size="13" lengthAdjust="spacing" textLength="101" x="342" y="96.0669">Monitors Status</text></g><!--MD5=[f796b22aa5c19bced13e7b4fac55aa45]
link monitoring to backend--><g id="link_monitoring_backend"><path d="M429.38,53.11 C435.26,62.29 442.06,73.1 448,83 C456.25,96.77 465.08,112.32 472.25,125.17 " fill="none" id="monitoring-to-backend" style="stroke:#181818;stroke-width:1.0;"/><polygon fill="#181818" points="474.81,129.77,473.9358,119.96,472.3818,125.3992,466.9426,123.8452,474.81,129.77" style="stroke:#181818;stroke-width:1.0;"/><text fill="#000000" font-family="sans-serif" font-size="13" lengthAdjust="spacing" textLength="128" x="459" y="96.0669">Monitors Health Info</text></g><!--MD5=[33927561b7042d6691e4a39b4cd332e1]
link monitoring to database--><g id="link_monitoring_database"><path d="M471.83,38.84 C509.31,45.97 558.27,59.17 596,83 C613.15,93.83 628.29,110.88 639.19,125.31 " fill="none" id="monitoring-to-database" style="stroke:#181818;stroke-width:1.0;"/><polygon fill="#181818" points="642.43,129.7,640.3068,120.0827,639.4621,125.6762,633.8686,124.8314,642.43,129.7" style="stroke:#181818;stroke-width:1.0;"/><text fill="#000000" font-family="sans-serif" font-size="13" lengthAdjust="spacing" textLength="90" x="617" y="96.0669">Monitors Data</text></g><!--MD5=[98bd5c7f6d9fbdfc68fcf4e1cb53a6ca]
link monitoring to frontend--><g id="link_monitoring_frontend"><path d="M471.74,31.95 C534.32,34.96 636.65,45.81 716,83 C737.9,93.26 758.58,111.07 773.56,126.03 " fill="none" id="monitoring-to-frontend" style="stroke:#181818;stroke-width:1.0;"/><polygon fill="#181818" points="777.25,129.76,773.7702,120.5464,773.736,126.2031,768.0792,126.1688,777.25,129.76" style="stroke:#181818;stroke-width:1.0;"/><text fill="#000000" font-family="sans-serif" font-size="13" lengthAdjust="spacing" textLength="151" x="744" y="96.0669">Displays Monitoring Info</text></g><!--MD5=[0da0c2b5579cd52dd4ac38e3dc1f5b5f]
@startuml
component "Monitoring" as monitoring
    component "Sensor 1" as sensor1
    component "Sensor 2" as sensor2
    component "Sensor 3" as sensor3
    component "Backend" as backend
    component "Database" as database
    component "Frontend" as frontend

    monitoring -down-> sensor1 : Monitors Status
    monitoring -down-> sensor2 : Monitors Status
    monitoring -down-> sensor3 : Monitors Status
    monitoring -down-> backend : Monitors Health Info
    monitoring -down-> database : Monitors Data
    monitoring -down-> frontend : Displays Monitoring Info
@enduml

PlantUML version 1.2022.7(Mon Aug 22 17:01:30 UTC 2022)
(GPL source distribution)
Java Runtime: OpenJDK Runtime Environment
JVM: OpenJDK 64-Bit Server VM
Default Encoding: UTF-8
Language: en
Country: null
--></g></svg>