<?xml version="1.0" encoding="UTF-8" standalone="no"?><svg xmlns="http://www.w3.org/2000/svg" xmlns:xlink="http://www.w3.org/1999/xlink" contentStyleType="text/css" height="305px" preserveAspectRatio="none" style="width:759px;height:305px;background:#FFFFFF;" version="1.1" viewBox="0 0 759 305" width="759px" zoomAndPan="magnify"><defs/><g><!--MD5=[38bce2e941425f44e90fcc44c88d9918]
entity business_logic--><g id="elem_business_logic"><rect fill="#F1F1F1" height="46.2969" rx="2.5" ry="2.5" style="stroke:#181818;stroke-width:0.5;" width="144" x="267.16" y="7"/><rect fill="#F1F1F1" height="10" style="stroke:#181818;stroke-width:0.5;" width="15" x="391.16" y="12"/><rect fill="#F1F1F1" height="2" style="stroke:#181818;stroke-width:0.5;" width="4" x="389.16" y="14"/><rect fill="#F1F1F1" height="2" style="stroke:#181818;stroke-width:0.5;" width="4" x="389.16" y="18"/><text fill="#000000" font-family="sans-serif" font-size="14" lengthAdjust="spacing" textLength="104" x="282.16" y="39.9951">Business Logic</text></g><!--MD5=[6574a7fd953c989fb05a0ed19b793cc2]
entity error_logs--><g id="elem_error_logs"><rect fill="#F1F1F1" height="46.2969" rx="2.5" ry="2.5" style="stroke:#181818;stroke-width:0.5;" width="110" x="304.16" y="253"/><rect fill="#F1F1F1" height="10" style="stroke:#181818;stroke-width:0.5;" width="15" x="394.16" y="258"/><rect fill="#F1F1F1" height="2" style="stroke:#181818;stroke-width:0.5;" width="4" x="392.16" y="260"/><rect fill="#F1F1F1" height="2" style="stroke:#181818;stroke-width:0.5;" width="4" x="392.16" y="264"/><text fill="#000000" font-family="sans-serif" font-size="14" lengthAdjust="spacing" textLength="70" x="319.16" y="285.9951">Error Logs</text></g><!--MD5=[0171924d90e4b8889794b7c9bca7f9d1]
entity sensor1--><g id="elem_sensor1"><rect fill="#F1F1F1" height="46.2969" rx="2.5" ry="2.5" style="stroke:#181818;stroke-width:0.5;" width="171" x="170.66" y="130"/><rect fill="#F1F1F1" height="10" style="stroke:#181818;stroke-width:0.5;" width="15" x="321.66" y="135"/><rect fill="#F1F1F1" height="2" style="stroke:#181818;stroke-width:0.5;" width="4" x="319.66" y="137"/><rect fill="#F1F1F1" height="2" style="stroke:#181818;stroke-width:0.5;" width="4" x="319.66" y="141"/><text fill="#000000" font-family="sans-serif" font-size="14" lengthAdjust="spacing" textLength="131" x="185.66" y="162.9951">Hydration Sensor 1</text></g><!--MD5=[407bca6816da8e17275c06ae35550d37]
entity sensor2--><g id="elem_sensor2"><rect fill="#F1F1F1" height="46.2969" rx="2.5" ry="2.5" style="stroke:#181818;stroke-width:0.5;" width="171" x="376.66" y="130"/><rect fill="#F1F1F1" height="10" style="stroke:#181818;stroke-width:0.5;" width="15" x="527.66" y="135"/><rect fill="#F1F1F1" height="2" style="stroke:#181818;stroke-width:0.5;" width="4" x="525.66" y="137"/><rect fill="#F1F1F1" height="2" style="stroke:#181818;stroke-width:0.5;" width="4" x="525.66" y="141"/><text fill="#000000" font-family="sans-serif" font-size="14" lengthAdjust="spacing" textLength="131" x="391.66" y="162.9951">Hydration Sensor 2</text></g><!--MD5=[94d24907baad5e8881b39bb56e2b13bc]
entity sensor3--><g id="elem_sensor3"><rect fill="#F1F1F1" height="46.2969" rx="2.5" ry="2.5" style="stroke:#181818;stroke-width:0.5;" width="171" x="582.66" y="130"/><rect fill="#F1F1F1" height="10" style="stroke:#181818;stroke-width:0.5;" width="15" x="733.66" y="135"/><rect fill="#F1F1F1" height="2" style="stroke:#181818;stroke-width:0.5;" width="4" x="731.66" y="137"/><rect fill="#F1F1F1" height="2" style="stroke:#181818;stroke-width:0.5;" width="4" x="731.66" y="141"/><text fill="#000000" font-family="sans-serif" font-size="14" lengthAdjust="spacing" textLength="131" x="597.66" y="162.9951">Hydration Sensor 3</text></g><!--MD5=[6404422b6db6d2d6a63208da97667392]
link business_logic to sensor1--><g id="link_business_logic_sensor1"><path d="M323.94,53.19 C309.9,73.66 289.05,104.07 274.18,125.74 " fill="none" id="business_logic-to-sensor1" style="stroke:#181818;stroke-width:1.0;"/><polygon fill="#181818" points="271.29,129.95,279.6849,124.7997,274.1226,125.8298,273.0926,120.2675,271.29,129.95" style="stroke:#181818;stroke-width:1.0;"/><text fill="#000000" font-family="sans-serif" font-size="13" lengthAdjust="spacing" textLength="87" x="304.16" y="96.0669">Handles Data</text></g><!--MD5=[c3ee6751403cc841c6778a0bb63e2004]
link business_logic to sensor2--><g id="link_business_logic_sensor2"><path d="M366.57,53.04 C377.32,62.02 389.6,72.71 400.16,83 C414.07,96.55 428.62,112.63 440.13,125.86 " fill="none" id="business_logic-to-sensor2" style="stroke:#181818;stroke-width:1.0;"/><polygon fill="#181818" points="443.61,129.87,440.7519,120.445,440.3408,126.0868,434.6989,125.6757,443.61,129.87" style="stroke:#181818;stroke-width:1.0;"/><text fill="#000000" font-family="sans-serif" font-size="13" lengthAdjust="spacing" textLength="87" x="418.16" y="96.0669">Handles Data</text></g><!--MD5=[cd9b5deb59d2c0542bd3e3a6bc4cdb0d]
link business_logic to sensor3--><g id="link_business_logic_sensor3"><path d="M411.39,50.14 C443.22,59.16 480.88,70.66 514.16,83 C549.63,96.15 588.48,113.58 618.3,127.63 " fill="none" id="business_logic-to-sensor3" style="stroke:#181818;stroke-width:1.0;"/><polygon fill="#181818" points="623,129.86,616.5848,122.387,618.4831,127.7159,613.1542,129.6141,623,129.86" style="stroke:#181818;stroke-width:1.0;"/><text fill="#000000" font-family="sans-serif" font-size="13" lengthAdjust="spacing" textLength="87" x="554.16" y="96.0669">Handles Data</text></g><!--MD5=[0c2aa566175714790d09647f54c6710f]
link sensor1 to error_logs--><g id="link_sensor1_error_logs"><path d="M272.69,176.16 C283.13,189.9 297.08,207.77 310.16,223 C317.6,231.65 326.01,240.8 333.75,248.96 " fill="none" id="sensor1-to-error_logs" style="stroke:#181818;stroke-width:1.0;"/><polygon fill="#181818" points="337.48,252.89,334.1687,243.6145,334.0314,249.2697,328.3762,249.1323,337.48,252.89" style="stroke:#181818;stroke-width:1.0;"/><text fill="#000000" font-family="sans-serif" font-size="13" lengthAdjust="spacing" textLength="88" x="311.16" y="219.0669">Pushes Errors</text></g><!--MD5=[7f880bcded74f957e8904d0547bb0bf9]
link sensor2 to error_logs--><g id="link_sensor2_error_logs"><path d="M443.7,176.13 C432.34,189.7 417.47,207.4 404.16,223 C396.97,231.43 389.08,240.58 381.94,248.83 " fill="none" id="sensor2-to-error_logs" style="stroke:#181818;stroke-width:1.0;"/><polygon fill="#181818" points="378.51,252.79,387.4289,248.6124,381.7863,249.013,381.3857,243.3703,378.51,252.79" style="stroke:#181818;stroke-width:1.0;"/><text fill="#000000" font-family="sans-serif" font-size="13" lengthAdjust="spacing" textLength="88" x="420.16" y="219.0669">Pushes Errors</text></g><!--MD5=[dd306510f59d3871cf4b0bc2f388abe2]
link sensor3 to error_logs--><g id="link_sensor3_error_logs"><path d="M623.46,176 C593.7,190.26 553.53,208.76 517.16,223 C485.26,235.49 449,247.58 419.26,256.94 " fill="none" id="sensor3-to-error_logs" style="stroke:#181818;stroke-width:1.0;"/><polygon fill="#181818" points="414.17,258.54,423.9553,259.6568,418.9399,257.0405,421.5561,252.025,414.17,258.54" style="stroke:#181818;stroke-width:1.0;"/><text fill="#000000" font-family="sans-serif" font-size="13" lengthAdjust="spacing" textLength="88" x="556.16" y="219.0669">Pushes Errors</text></g><!--MD5=[c6465e0c9c7a28fdd585135ed6c9756e]
link business_logic to error_logs--><g id="link_business_logic_error_logs"><path d="M266.82,40.64 C167.15,57.04 6,96.6 63.16,176 C116.7,250.36 228.66,269.68 298.5,274.23 " fill="none" id="business_logic-to-error_logs" style="stroke:#181818;stroke-width:1.0;"/><polygon fill="#181818" points="303.87,274.55,295.1387,269.9933,298.8798,274.2363,294.6368,277.9775,303.87,274.55" style="stroke:#181818;stroke-width:1.0;"/><text fill="#000000" font-family="sans-serif" font-size="13" lengthAdjust="spacing" textLength="88" x="64.16" y="157.5669">Pushes Errors</text></g><!--MD5=[8e124828ab76e79d58cc674dcbb43f45]
@startuml
component "Business Logic" as business_logic
    component "Error Logs" as error_logs

    component "Hydration Sensor 1" as sensor1
    component "Hydration Sensor 2" as sensor2
    component "Hydration Sensor 3" as sensor3

    business_logic -down-> sensor1 : Handles Data
    business_logic -down-> sensor2 : Handles Data
    business_logic -down-> sensor3 : Handles Data

    sensor1 -down-> error_logs : Pushes Errors
    sensor2 -down-> error_logs : Pushes Errors
    sensor3 -down-> error_logs : Pushes Errors
    business_logic -down-> error_logs : Pushes Errors
@enduml

PlantUML version 1.2022.7(Mon Aug 22 17:01:30 UTC 2022)
(GPL source distribution)
Java Runtime: OpenJDK Runtime Environment
JVM: OpenJDK 64-Bit Server VM
Default Encoding: UTF-8
Language: en
Country: null
--></g></svg>