<?xml version="1.0" encoding="UTF-8" standalone="no"?><svg xmlns="http://www.w3.org/2000/svg" xmlns:xlink="http://www.w3.org/1999/xlink" contentStyleType="text/css" height="110px" preserveAspectRatio="none" style="width:1034px;height:110px;background:#FFFFFF;" version="1.1" viewBox="0 0 1034 110" width="1034px" zoomAndPan="magnify"><defs/><g><!--MD5=[0b14dcc74e1bebe2e53209cdcaad6c1f]
class RawSensorData--><g id="elem_RawSensorData"><rect codeLine="3" fill="#F1F1F1" height="96.8906" id="RawSensorData" rx="2.5" ry="2.5" style="stroke:#181818;stroke-width:0.5;" width="173" x="7" y="7"/><ellipse cx="35.95" cy="23" fill="#ADD1B2" rx="11" ry="11" style="stroke:#181818;stroke-width:1.0;"/><path d="M38.9188,28.6406 Q38.3406,28.9375 37.7,29.0781 Q37.0594,29.2344 36.3563,29.2344 Q33.8563,29.2344 32.5281,27.5938 Q31.2156,25.9375 31.2156,22.8125 Q31.2156,19.6875 32.5281,18.0313 Q33.8563,16.375 36.3563,16.375 Q37.0594,16.375 37.7,16.5313 Q38.3563,16.6875 38.9188,16.9844 L38.9188,19.7031 Q38.2938,19.125 37.7,18.8594 Q37.1063,18.5781 36.4813,18.5781 Q35.1375,18.5781 34.45,19.6563 Q33.7625,20.7188 33.7625,22.8125 Q33.7625,24.9063 34.45,25.9844 Q35.1375,27.0469 36.4813,27.0469 Q37.1063,27.0469 37.7,26.7813 Q38.2938,26.5 38.9188,25.9219 L38.9188,28.6406 Z " fill="#000000"/><text fill="#000000" font-family="sans-serif" font-size="14" lengthAdjust="spacing" textLength="110" x="53.05" y="27.8467">RawSensorData</text><line style="stroke:#181818;stroke-width:0.5;" x1="8" x2="179" y1="39" y2="39"/><ellipse cx="18" cy="52.6484" fill="none" rx="3" ry="3" style="stroke:#038048;stroke-width:1.0;"/><text fill="#000000" font-family="sans-serif" font-size="14" lengthAdjust="spacing" textLength="38" x="27" y="55.9951">id: int</text><ellipse cx="18" cy="68.9453" fill="none" rx="3" ry="3" style="stroke:#038048;stroke-width:1.0;"/><text fill="#000000" font-family="sans-serif" font-size="14" lengthAdjust="spacing" textLength="96" x="27" y="72.292">sensor: string</text><ellipse cx="18" cy="85.2422" fill="none" rx="3" ry="3" style="stroke:#038048;stroke-width:1.0;"/><text fill="#000000" font-family="sans-serif" font-size="14" lengthAdjust="spacing" textLength="147" x="27" y="88.5889">water_hydration: float</text><line style="stroke:#181818;stroke-width:0.5;" x1="8" x2="179" y1="95.8906" y2="95.8906"/></g><!--MD5=[a0d4271f366034dc12d4651d7c264bc9]
class DataLake--><g id="elem_DataLake"><rect codeLine="9" fill="#F1F1F1" height="96.8906" id="DataLake" rx="2.5" ry="2.5" style="stroke:#181818;stroke-width:0.5;" width="147" x="277" y="7"/><ellipse cx="314.95" cy="23" fill="#ADD1B2" rx="11" ry="11" style="stroke:#181818;stroke-width:1.0;"/><path d="M317.9188,28.6406 Q317.3406,28.9375 316.7,29.0781 Q316.0594,29.2344 315.3563,29.2344 Q312.8563,29.2344 311.5281,27.5938 Q310.2156,25.9375 310.2156,22.8125 Q310.2156,19.6875 311.5281,18.0313 Q312.8563,16.375 315.3563,16.375 Q316.0594,16.375 316.7,16.5313 Q317.3563,16.6875 317.9188,16.9844 L317.9188,19.7031 Q317.2938,19.125 316.7,18.8594 Q316.1063,18.5781 315.4813,18.5781 Q314.1375,18.5781 313.45,19.6563 Q312.7625,20.7188 312.7625,22.8125 Q312.7625,24.9063 313.45,25.9844 Q314.1375,27.0469 315.4813,27.0469 Q316.1063,27.0469 316.7,26.7813 Q317.2938,26.5 317.9188,25.9219 L317.9188,28.6406 Z " fill="#000000"/><text fill="#000000" font-family="sans-serif" font-size="14" lengthAdjust="spacing" textLength="64" x="334.05" y="27.8467">DataLake</text><line style="stroke:#181818;stroke-width:0.5;" x1="278" x2="423" y1="39" y2="39"/><ellipse cx="288" cy="52.6484" fill="none" rx="3" ry="3" style="stroke:#038048;stroke-width:1.0;"/><text fill="#000000" font-family="sans-serif" font-size="14" lengthAdjust="spacing" textLength="38" x="297" y="55.9951">id: int</text><ellipse cx="288" cy="68.9453" fill="none" rx="3" ry="3" style="stroke:#038048;stroke-width:1.0;"/><text fill="#000000" font-family="sans-serif" font-size="14" lengthAdjust="spacing" textLength="103" x="297" y="72.292">raw_data: JSON</text><ellipse cx="288" cy="85.2422" fill="none" rx="3" ry="3" style="stroke:#038048;stroke-width:1.0;"/><text fill="#000000" font-family="sans-serif" font-size="14" lengthAdjust="spacing" textLength="121" x="297" y="88.5889">timestamp: string</text><line style="stroke:#181818;stroke-width:0.5;" x1="278" x2="423" y1="95.8906" y2="95.8906"/></g><!--MD5=[73e2055bdf23152e1a3864df391ce653]
class DataWarehouse--><g id="elem_DataWarehouse"><rect codeLine="15" fill="#F1F1F1" height="96.8906" id="DataWarehouse" rx="2.5" ry="2.5" style="stroke:#181818;stroke-width:0.5;" width="159" x="562" y="7"/><ellipse cx="584.2" cy="23" fill="#ADD1B2" rx="11" ry="11" style="stroke:#181818;stroke-width:1.0;"/><path d="M587.1688,28.6406 Q586.5906,28.9375 585.95,29.0781 Q585.3094,29.2344 584.6063,29.2344 Q582.1063,29.2344 580.7781,27.5938 Q579.4656,25.9375 579.4656,22.8125 Q579.4656,19.6875 580.7781,18.0313 Q582.1063,16.375 584.6063,16.375 Q585.3094,16.375 585.95,16.5313 Q586.6063,16.6875 587.1688,16.9844 L587.1688,19.7031 Q586.5438,19.125 585.95,18.8594 Q585.3563,18.5781 584.7313,18.5781 Q583.3875,18.5781 582.7,19.6563 Q582.0125,20.7188 582.0125,22.8125 Q582.0125,24.9063 582.7,25.9844 Q583.3875,27.0469 584.7313,27.0469 Q585.3563,27.0469 585.95,26.7813 Q586.5438,26.5 587.1688,25.9219 L587.1688,28.6406 Z " fill="#000000"/><text fill="#000000" font-family="sans-serif" font-size="14" lengthAdjust="spacing" textLength="111" x="599.8" y="27.8467">DataWarehouse</text><line style="stroke:#181818;stroke-width:0.5;" x1="563" x2="720" y1="39" y2="39"/><ellipse cx="573" cy="52.6484" fill="none" rx="3" ry="3" style="stroke:#038048;stroke-width:1.0;"/><text fill="#000000" font-family="sans-serif" font-size="14" lengthAdjust="spacing" textLength="38" x="582" y="55.9951">id: int</text><ellipse cx="573" cy="68.9453" fill="none" rx="3" ry="3" style="stroke:#038048;stroke-width:1.0;"/><text fill="#000000" font-family="sans-serif" font-size="14" lengthAdjust="spacing" textLength="96" x="582" y="72.292">sensor: string</text><ellipse cx="573" cy="85.2422" fill="none" rx="3" ry="3" style="stroke:#038048;stroke-width:1.0;"/><text fill="#000000" font-family="sans-serif" font-size="14" lengthAdjust="spacing" textLength="133" x="582" y="88.5889">avg_hydration: float</text><line style="stroke:#181818;stroke-width:0.5;" x1="563" x2="720" y1="95.8906" y2="95.8906"/></g><!--MD5=[055ae584e8f48d8fc3c3de49aadf0637]
class Dashboard--><g id="elem_Dashboard"><rect codeLine="21" fill="#F1F1F1" height="80.5938" id="Dashboard" rx="2.5" ry="2.5" style="stroke:#181818;stroke-width:0.5;" width="159" x="868" y="15"/><ellipse cx="905.95" cy="31" fill="#ADD1B2" rx="11" ry="11" style="stroke:#181818;stroke-width:1.0;"/><path d="M908.9188,36.6406 Q908.3406,36.9375 907.7,37.0781 Q907.0594,37.2344 906.3563,37.2344 Q903.8563,37.2344 902.5281,35.5938 Q901.2156,33.9375 901.2156,30.8125 Q901.2156,27.6875 902.5281,26.0313 Q903.8563,24.375 906.3563,24.375 Q907.0594,24.375 907.7,24.5313 Q908.3563,24.6875 908.9188,24.9844 L908.9188,27.7031 Q908.2938,27.125 907.7,26.8594 Q907.1063,26.5781 906.4813,26.5781 Q905.1375,26.5781 904.45,27.6563 Q903.7625,28.7188 903.7625,30.8125 Q903.7625,32.9063 904.45,33.9844 Q905.1375,35.0469 906.4813,35.0469 Q907.1063,35.0469 907.7,34.7813 Q908.2938,34.5 908.9188,33.9219 L908.9188,36.6406 Z " fill="#000000"/><text fill="#000000" font-family="sans-serif" font-size="14" lengthAdjust="spacing" textLength="76" x="925.05" y="35.8467">Dashboard</text><line style="stroke:#181818;stroke-width:0.5;" x1="869" x2="1026" y1="47" y2="47"/><ellipse cx="879" cy="60.6484" fill="none" rx="3" ry="3" style="stroke:#038048;stroke-width:1.0;"/><text fill="#000000" font-family="sans-serif" font-size="14" lengthAdjust="spacing" textLength="96" x="888" y="63.9951">sensor: string</text><ellipse cx="879" cy="76.9453" fill="none" rx="3" ry="3" style="stroke:#038048;stroke-width:1.0;"/><text fill="#000000" font-family="sans-serif" font-size="14" lengthAdjust="spacing" textLength="133" x="888" y="80.292">avg_hydration: float</text><line style="stroke:#181818;stroke-width:0.5;" x1="869" x2="1026" y1="87.5938" y2="87.5938"/></g><!--MD5=[a5338584e84d5b590279836e43064112]
link RawSensorData to DataLake--><g id="link_RawSensorData_DataLake"><path codeLine="26" d="M180.15,55.5 C209.64,55.5 242.44,55.5 271.32,55.5 " fill="none" id="RawSensorData-to-DataLake" style="stroke:#181818;stroke-width:1.0;"/><polygon fill="#181818" points="276.67,55.5,267.67,51.5,271.67,55.5,267.67,59.5,276.67,55.5" style="stroke:#181818;stroke-width:1.0;"/><text fill="#000000" font-family="sans-serif" font-size="13" lengthAdjust="spacing" textLength="60" x="198.5" y="48.5669">Raw Data</text></g><!--MD5=[fadfe1dbeeaa16f71cf575f0ccc31519]
link DataLake to DataWarehouse--><g id="link_DataLake_DataWarehouse"><path codeLine="27" d="M424.31,55.5 C464.68,55.5 514.87,55.5 556.82,55.5 " fill="none" id="DataLake-to-DataWarehouse" style="stroke:#181818;stroke-width:1.0;"/><polygon fill="#181818" points="561.9,55.5,552.9,51.5,556.9,55.5,552.9,59.5,561.9,55.5" style="stroke:#181818;stroke-width:1.0;"/><text fill="#000000" font-family="sans-serif" font-size="13" lengthAdjust="spacing" textLength="101" x="442.5" y="48.5669">Processed Data</text></g><!--MD5=[521186696fce3410b55cedff4dae49f0]
link DataWarehouse to Dashboard--><g id="link_DataWarehouse_Dashboard"><path codeLine="28" d="M721.1,55.5 C764.58,55.5 818.42,55.5 862.69,55.5 " fill="none" id="DataWarehouse-to-Dashboard" style="stroke:#181818;stroke-width:1.0;"/><polygon fill="#181818" points="867.77,55.5,858.77,51.5,862.77,55.5,858.77,59.5,867.77,55.5" style="stroke:#181818;stroke-width:1.0;"/><text fill="#000000" font-family="sans-serif" font-size="13" lengthAdjust="spacing" textLength="110" x="739.5" y="48.5669">Aggregated Data</text></g><!--MD5=[f7cd9bcf8bb0ea6d1779e2ebd9737a09]
@startuml
!define RECTANGLE class

RECTANGLE RawSensorData {
  +id: int
  +sensor: string
  +water_hydration: float
}

RECTANGLE DataLake {
  +id: int
  +raw_data: JSON
  +timestamp: string
}

RECTANGLE DataWarehouse {
  +id: int
  +sensor: string
  +avg_hydration: float
}

RECTANGLE Dashboard {
  +sensor: string
  +avg_hydration: float
}

RawSensorData -right-> DataLake : Raw Data
DataLake -right-> DataWarehouse : Processed Data
DataWarehouse -right-> Dashboard : Aggregated Data
@enduml

@startuml

class RawSensorData {
  +id: int
  +sensor: string
  +water_hydration: float
}

class DataLake {
  +id: int
  +raw_data: JSON
  +timestamp: string
}

class DataWarehouse {
  +id: int
  +sensor: string
  +avg_hydration: float
}

class Dashboard {
  +sensor: string
  +avg_hydration: float
}

RawSensorData -right-> DataLake : Raw Data
DataLake -right-> DataWarehouse : Processed Data
DataWarehouse -right-> Dashboard : Aggregated Data
@enduml

PlantUML version 1.2022.7(Mon Aug 22 17:01:30 UTC 2022)
(GPL source distribution)
Java Runtime: OpenJDK Runtime Environment
JVM: OpenJDK 64-Bit Server VM
Default Encoding: UTF-8
Language: en
Country: null
--></g></svg>